<svg width="59" height="17" viewBox="0 0 59 17" fill="none" xmlns="http://www.w3.org/2000/svg">
<g id="aetna-seeklogo 1" clip-path="url(#clip0_740_6417)">
<path id="Vector" d="M54.4461 11.9384C54.4461 11.1641 54.5392 10.0492 54.5392 8.74846C54.5392 6.33279 53.5467 5.43465 50.8486 5.43465C49.546 5.43465 48.3985 5.62047 47.6852 5.93017L47.7782 7.85032C48.3985 7.50965 49.2979 7.19995 50.1663 7.19995C51.4068 7.19995 51.748 7.69547 51.748 8.90331V9.08913H51.3448C48.3055 9.08913 46.8788 10.0182 46.8788 11.7216C46.8788 13.4869 47.7472 14.5089 50.2593 14.5089C51.5929 14.5089 52.8644 14.3231 54.5702 14.3231C54.4461 13.6727 54.4461 12.6507 54.4461 11.9384ZM50.9106 12.8675C49.9802 12.8675 49.577 12.5578 49.577 11.7835C49.577 11.0402 50.0732 10.6067 51.3448 10.6067H51.7169C51.7169 11.319 51.6859 12.1861 51.748 12.7746C51.5309 12.8365 51.2207 12.8675 50.9106 12.8675ZM27.4644 12.7746C25.9447 12.7746 25.1384 12.0003 25.1384 10.7615V10.6996C25.4175 10.6996 25.9447 10.7305 26.2549 10.7305C28.953 10.7305 30.3176 9.89435 30.3176 8.06711C30.3176 6.48764 29.1701 5.46562 26.7201 5.46562C23.7118 5.46562 22.5333 6.79734 22.2541 9.18204C21.8199 9.15107 21.3237 9.15107 20.6724 9.15107V8.74846C20.6724 6.33279 19.68 5.43465 16.9818 5.43465C15.6793 5.43465 14.5318 5.62047 13.8185 5.93017L13.9115 7.85032C14.5318 7.50965 15.4312 7.19995 16.2995 7.19995C17.5401 7.19995 17.9122 7.69547 17.9122 8.90331V9.08913H17.5091C14.4697 9.08913 13.0431 10.0182 13.0431 11.7216C13.0431 13.4869 13.9115 14.5089 16.4236 14.5089C17.7572 14.5089 19.0287 14.3231 20.7345 14.3231C20.6104 13.6108 20.6104 12.5887 20.6104 11.9074C20.6104 11.5358 20.6414 11.1022 20.6414 10.6067C21.3547 10.6067 21.882 10.6376 22.2231 10.6376C22.4712 13.4869 23.9599 14.5089 26.9992 14.5089C28.1157 14.5089 29.2632 14.3231 29.8835 14.0443L29.7904 12.1242C29.2012 12.4958 28.3638 12.7746 27.4644 12.7746ZM17.0749 12.8675C16.1445 12.8675 15.7413 12.5578 15.7413 11.7835C15.7413 11.0402 16.2375 10.6067 17.5091 10.6067H17.8812C17.8812 11.319 17.8502 12.1861 17.9122 12.7746C17.6952 12.8365 17.354 12.8675 17.0749 12.8675ZM25.1074 9.18204C25.1074 7.9742 25.4795 7.07607 26.596 7.07607C27.2163 7.07607 27.6505 7.41674 27.6505 8.00517C27.6505 8.84136 27.0922 9.24398 25.9137 9.24398C25.6346 9.24398 25.3245 9.24398 25.1074 9.21301V9.18204ZM45.7624 10.3279V8.62457C45.7624 6.4257 44.8009 5.46562 42.0718 5.46562C40.5521 5.46562 39.4666 5.74435 37.7609 5.74435C37.8539 7.29286 37.8539 9.18204 37.8539 10.3589C37.8539 11.5667 37.8229 13.7037 37.7609 14.385H40.6761C40.6141 13.7037 40.5521 11.6906 40.5521 10.3589C40.5521 9.58465 40.5521 8.65554 40.5831 7.41674C40.8622 7.32383 41.2344 7.23092 41.6376 7.23092C42.661 7.23092 43.0022 7.69547 43.0022 9.02719V10.3279C43.0022 11.5358 42.9711 13.6727 42.9091 14.354H45.8244C45.8244 13.6727 45.7624 11.6906 45.7624 10.3279ZM36.5824 12.4339L36.7064 14.354C36.4893 14.416 35.776 14.5399 34.8456 14.5399C32.9228 14.5399 31.8993 13.7346 31.8993 11.7526C31.8993 10.2041 31.9303 8.50069 31.9303 7.57159H30.9379C30.9689 7.13801 30.9379 6.54958 30.9379 6.116C32.4266 5.86823 32.8918 5.03204 33.1399 3.39062H34.7836C34.7216 4.07197 34.6905 5.03204 34.6595 5.71338H36.3963V7.57159H34.6285V10.9473C34.6285 12.2481 34.9076 12.6197 35.776 12.6197C36.0862 12.6197 36.4273 12.5578 36.5824 12.4339ZM3.39793 4.6604C3.77009 4.6604 4.11124 4.78428 4.39036 5.06301L6.00306 6.67346L7.61577 5.06301C7.89489 4.78428 8.23604 4.6604 8.6082 4.6604C8.94935 4.6604 9.32151 4.78428 9.60063 5.06301L11.5855 7.0451C12.1437 7.60256 12.1437 8.46972 11.5855 9.02719L6.00306 14.5708L0.420635 8.99622C-0.137608 8.43875 -0.137608 7.57159 0.420635 7.01413L2.4055 5.03204C2.68462 4.78428 3.02577 4.6604 3.39793 4.6604ZM55.0044 5.46562H56.524V5.77532H55.9348V7.32383H55.5626V5.77532H54.9734L55.0044 5.46562ZM56.8652 5.46562H57.3614L57.6095 6.27085C57.6715 6.51861 57.7956 6.98316 57.7956 6.98316C57.7956 6.98316 57.9196 6.51861 57.9817 6.27085L58.2298 5.46562H58.726V7.32383H58.3848V6.64249C58.3848 6.30182 58.4159 5.80629 58.4159 5.80629C58.4159 5.80629 58.2918 6.23988 58.1988 6.61152L57.9817 7.32383H57.6405L57.4234 6.61152C57.2994 6.23988 57.2063 5.80629 57.2063 5.80629C57.2063 5.80629 57.2374 6.33279 57.2374 6.64249V7.32383H56.8962V5.46562H56.8652Z" fill="#7D3F98"/>
</g>
<defs>
<clipPath id="clip0_740_6417">
<rect width="58.68" height="16.8621" fill="white" transform="translate(0.166016 0.0693359)"/>
</clipPath>
</defs>
</svg>
