<svg width="24" height="25" viewBox="0 0 24 25" fill="none" xmlns="http://www.w3.org/2000/svg">
<g id="material-symbols:call-outline">
<path id="Vector" d="M19.95 21.5C17.8667 21.5 15.8083 21.046 13.775 20.138C11.7417 19.23 9.89167 17.9423 8.225 16.275C6.55833 14.6077 5.271 12.7577 4.363 10.725C3.455 8.69233 3.00067 6.634 3 4.55C3 4.25 3.1 4 3.3 3.8C3.5 3.6 3.75 3.5 4.05 3.5H8.1C8.33333 3.5 8.54167 3.57933 8.725 3.738C8.90833 3.89667 9.01667 4.084 9.05 4.3L9.7 7.8C9.73333 8.06667 9.725 8.29167 9.675 8.475C9.625 8.65833 9.53333 8.81667 9.4 8.95L6.975 11.4C7.30833 12.0167 7.704 12.6123 8.162 13.187C8.62 13.7617 9.12433 14.316 9.675 14.85C10.1917 15.3667 10.7333 15.846 11.3 16.288C11.8667 16.73 12.4667 17.134 13.1 17.5L15.45 15.15C15.6 15 15.796 14.8877 16.038 14.813C16.28 14.7383 16.5173 14.7173 16.75 14.75L20.2 15.45C20.4333 15.5167 20.625 15.6377 20.775 15.813C20.925 15.9883 21 16.184 21 16.4V20.45C21 20.75 20.9 21 20.7 21.2C20.5 21.4 20.25 21.5 19.95 21.5ZM6.025 9.5L7.675 7.85L7.25 5.5H5.025C5.10833 6.18333 5.225 6.85833 5.375 7.525C5.525 8.19167 5.74167 8.85 6.025 9.5ZM14.975 18.45C15.625 18.7333 16.2877 18.9583 16.963 19.125C17.6383 19.2917 18.3173 19.4 19 19.45V17.25L16.65 16.775L14.975 18.45Z" fill="white"/>
</g>
</svg>
