<svg version="1.1" id="Layer_1" xmlns="http://www.w3.org/2000/svg" xmlns:xlink="http://www.w3.org/1999/xlink" x="0px" y="0px"
	 width="100%" viewBox="0 0 589 194" enable-background="new 0 0 589 194" xml:space="preserve">
<path fill="#FEFEFE" opacity="1.000000" stroke="none" 
	d="
M448.000000,195.000000 
	C375.645782,195.000000 303.291534,195.000000 230.564606,194.665894 
	C230.815964,193.379456 231.586349,192.491898 232.041275,191.464676 
	C236.203171,182.067215 240.319656,172.649597 244.429642,163.229263 
	C246.707886,158.007416 248.948517,152.769165 251.206100,147.538315 
	C250.702942,147.106369 250.199783,146.674408 249.696625,146.242462 
	C248.270370,147.501984 246.260864,148.487137 245.517288,150.067810 
	C242.002151,157.540009 238.833160,165.175034 235.182541,173.576523 
	C233.965561,172.044617 233.169571,171.042648 232.251587,169.723328 
	C229.505020,162.892151 227.037338,156.307129 224.138336,149.917801 
	C223.468781,148.442139 221.323212,147.636185 219.856873,146.522049 
	C219.399216,146.994629 218.941574,147.467209 218.483917,147.939789 
	C222.333633,156.289398 226.183365,164.639023 229.992828,173.369858 
	C232.573746,177.572815 232.018204,181.248276 230.050369,185.264221 
	C228.571182,188.282913 227.984192,191.738770 227.000000,195.000000 
	C202.979111,195.000000 178.958206,195.000000 154.481430,194.532272 
	C154.021683,189.446014 153.905670,184.822754 154.100784,180.212646 
	C154.144089,179.189087 155.284439,178.211960 156.072357,177.512360 
	C158.817810,179.177124 161.410599,180.542953 164.378769,182.058319 
	C174.087479,184.169617 181.786545,180.366638 185.999008,171.713898 
	C189.414642,164.697922 187.159683,154.769882 180.339020,149.855606 
	C170.958466,143.096954 162.665451,144.634781 154.891373,152.948898 
	C154.511917,151.417206 154.212906,150.210281 153.897980,148.658188 
	C152.818024,148.172928 151.753983,148.032852 150.265747,147.836929 
	C150.265747,155.426529 150.173096,162.568481 150.290268,169.707001 
	C150.423401,177.818710 150.744156,185.927322 150.949036,194.278625 
	C150.914719,194.519974 151.000000,195.000000 151.000000,195.000000 
	C101.017288,195.000000 51.034576,195.000000 1.025933,195.000000 
	C1.025933,130.372986 1.025933,65.745964 1.025933,1.059472 
	C197.225800,1.059472 393.451599,1.059472 589.838745,1.059472 
	C589.838745,65.666389 589.838745,130.333130 589.838745,195.000000 
	C544.239014,195.000000 498.588165,195.000000 452.467102,194.639404 
	C458.910645,178.748520 465.824402,163.218216 473.234222,146.573685 
	C464.866791,147.402298 465.592804,154.103195 463.360779,158.079956 
	C460.749695,162.732040 459.005737,167.870804 456.622498,173.409927 
	C455.411499,171.748779 454.756805,170.850754 454.074677,169.580078 
	C451.198273,162.710693 448.497620,156.141586 445.389099,149.771500 
	C444.671600,148.301102 442.557861,147.512024 441.086639,146.409424 
	C440.629700,146.879425 440.172760,147.349442 439.715790,147.819458 
	C443.487732,155.846542 447.259674,163.873642 451.055206,172.238449 
	C451.455231,173.394333 451.831665,174.212479 452.184204,175.311356 
	C452.433990,176.069626 452.707642,176.547165 453.007935,177.436890 
	C452.631317,179.893890 452.399475,181.991623 451.787781,183.972046 
	C450.641266,187.683884 449.274902,191.327820 448.000000,195.000000 
M381.001404,177.998383 
	C381.001404,177.998383 381.018555,178.030533 381.771210,178.066772 
	C382.511139,178.058563 383.251038,178.050354 384.010406,178.753418 
	C384.071411,179.460556 384.132416,180.167709 384.295685,181.612762 
	C385.556122,181.432755 386.816528,181.252747 388.000000,181.015457 
	C388.000000,181.015457 388.077728,181.064270 388.635651,180.436813 
	C388.714386,170.712479 388.820953,160.988174 388.831451,151.263763 
	C388.832581,150.217407 388.275024,149.170456 387.168274,147.895523 
	C385.679352,148.894958 384.190399,149.894394 382.017426,151.352997 
	C381.788910,151.197144 380.618958,150.474136 379.530273,149.644440 
	C372.398804,144.209595 363.768250,144.705612 357.169495,150.955872 
	C349.584045,158.140701 349.511475,168.983475 357.298737,178.656250 
	C360.209991,180.100037 363.121277,181.543839 366.898834,183.012558 
	C371.847504,183.493881 376.254852,182.260895 380.207733,179.282944 
	C380.481842,178.862610 380.755951,178.442261 381.001404,177.998383 
M200.572647,164.410416 
	C202.165649,165.298126 203.775391,166.157303 205.348175,167.079514 
	C208.582260,168.975861 210.471283,171.620575 208.572083,175.322174 
	C206.704971,178.961182 203.344604,178.946304 199.921417,177.839874 
	C198.994888,177.540390 198.217896,176.575928 197.309219,176.472931 
	C196.071075,176.332626 194.772476,176.725754 193.499802,176.890152 
	C193.922485,177.977371 194.040970,179.414200 194.819931,180.091949 
	C198.400116,183.206879 204.682465,183.869980 208.400604,181.580902 
	C212.256073,179.207306 214.315369,175.713974 213.649521,171.113266 
	C213.015396,166.731506 208.302017,162.755707 203.001877,161.413940 
	C198.940918,159.714462 197.550095,156.642456 198.555542,152.414581 
	C201.693222,149.529434 205.114151,149.333282 208.881485,151.673935 
	C209.729553,152.200821 211.150085,151.806274 212.307083,151.835922 
	C211.797867,150.643112 211.611511,149.065475 210.725296,148.321991 
	C206.110275,144.450226 199.100494,145.291321 195.645905,149.928558 
	C192.294281,154.427567 193.966537,159.759842 200.572647,164.410416 
M74.436272,8.838475 
	C42.069763,8.364857 15.133195,33.441128 13.767999,64.135612 
	C12.263738,97.956779 38.124508,125.470428 71.784142,126.653564 
	C102.211555,127.723099 130.996384,101.500908 132.027359,71.693451 
	C133.216599,37.311058 109.065941,10.522306 74.436272,8.838475 
M424.281616,40.647846 
	C406.625641,43.613598 393.229156,56.265919 389.490112,73.506622 
	C385.798645,90.528175 392.728821,109.042953 407.286896,118.068016 
	C427.391144,130.531326 445.834045,126.765953 462.903381,109.734032 
	C462.903381,112.141289 462.903595,113.569466 462.903290,114.997643 
	C462.902924,116.664024 462.686798,118.369019 462.976196,119.983414 
	C463.173920,121.086311 463.842041,122.658363 464.703003,122.997696 
	C469.716553,124.973595 472.975433,122.753883 472.983368,117.483185 
	C473.032837,84.655571 473.044067,51.827911 473.072235,19.000267 
	C473.079498,10.523302 473.085938,10.515295 464.638031,11.067798 
	C464.187683,11.097249 463.758423,11.449533 462.667267,11.951535 
	C462.667267,26.196594 462.667267,40.675999 462.667267,56.781593 
	C452.311768,43.678459 439.980927,38.906162 424.281616,40.647846 
M260.224854,106.757240 
	C244.224991,119.634079 225.556076,118.655548 213.527023,104.183739 
	C208.705154,98.382675 206.500626,91.662903 206.989182,83.506302 
	C231.230682,83.506302 254.969208,83.506302 278.833160,83.506302 
	C278.969971,82.005463 279.149963,81.032303 279.133514,80.062469 
	C278.853302,63.539894 268.037994,48.240639 252.819153,42.800091 
	C235.453873,36.592213 217.784546,41.045986 206.101562,54.575829 
	C190.247284,72.936424 193.283005,103.176788 212.410934,117.426437 
	C231.628418,131.742844 260.803345,126.319412 274.014648,105.974701 
	C277.133545,101.171814 276.927155,100.788185 272.014465,98.177292 
	C269.096771,96.626656 267.242828,96.855492 265.554199,99.912582 
	C264.283997,102.212135 262.380066,104.161644 260.224854,106.757240 
M497.276215,63.821968 
	C496.021637,67.938644 494.350128,71.979576 493.586121,76.185364 
	C490.596191,92.644661 498.901733,110.738495 512.990479,119.110687 
	C528.594604,128.383392 546.335144,127.161850 560.513245,115.813889 
	C562.503296,114.221092 564.418274,112.534477 567.223450,110.170372 
	C567.223450,114.640846 566.031982,118.842438 567.597595,121.253937 
	C568.867004,123.209061 573.449768,123.012993 576.395813,123.730354 
	C577.041565,122.196846 577.397705,121.744415 577.399475,121.290588 
	C577.499756,95.982040 577.596558,70.673386 577.619263,45.364685 
	C577.623230,40.916191 574.040527,42.466721 571.689331,42.208687 
	C569.186462,41.934006 566.942200,42.144371 567.102234,45.680325 
	C567.247375,48.888260 567.132935,52.107944 567.132935,56.178051 
	C544.701355,29.438614 509.081604,39.473530 497.276215,63.821968 
M369.129944,70.293228 
	C368.490021,59.438107 365.061676,49.950687 355.075439,44.296852 
	C341.820862,36.792595 325.035217,39.689285 314.436493,51.027294 
	C313.065704,52.493664 312.025482,54.269005 310.832123,55.901230 
	C310.268738,55.499657 309.705383,55.098083 309.141998,54.696510 
	C309.141998,50.640923 309.141998,46.585331 309.141998,42.624268 
	C298.998810,41.157898 299.014801,41.157902 299.012939,50.429691 
	C299.008423,73.072838 298.982086,95.715981 298.986298,118.359123 
	C298.986542,119.805565 299.172638,121.251984 299.289520,122.948914 
	C302.737244,122.948914 305.824554,122.948914 309.235382,122.948914 
	C309.384338,121.523849 309.627136,120.240158 309.636169,118.954834 
	C309.728516,105.804932 309.756042,92.654556 309.858826,79.504753 
	C309.912384,72.648514 311.893127,66.417305 316.066376,60.899334 
	C323.116882,51.576939 334.990936,47.635113 345.820312,51.096531 
	C354.243622,53.788883 358.809845,61.460819 358.985474,74.019691 
	C359.194946,88.999916 359.227142,103.985023 359.097107,118.965935 
	C359.064270,122.752136 360.732971,123.629005 363.933655,123.220558 
	C366.420319,122.903236 369.931213,124.569107 369.839752,119.618637 
	C369.541534,103.477386 369.414917,87.332954 369.129944,70.293228 
M161.180847,92.552078 
	C161.200211,89.719536 161.050903,86.873825 161.270782,84.056938 
	C161.915314,75.799690 161.517334,67.282272 166.244827,59.890804 
	C169.598236,54.647724 173.838638,50.475296 180.598297,50.460377 
	C187.622574,50.444874 188.180923,50.135082 190.702805,42.543655 
	C178.096573,36.630688 169.699722,43.351799 161.162231,53.195999 
	C161.162231,50.366108 160.999451,48.786293 161.194412,47.251934 
	C161.674973,43.469856 160.509827,41.832615 156.328995,41.996120 
	C152.530212,42.144680 150.246277,42.246719 150.301361,47.252953 
	C150.547028,69.577049 150.363251,91.906006 150.314255,114.233162 
	C150.293076,123.882599 150.271042,123.886536 159.910980,122.965981 
	C160.189682,122.939369 160.440262,122.618027 161.179779,122.102257 
	C161.179779,112.800186 161.179779,103.169006 161.180847,92.552078 
M298.960205,168.488235 
	C298.963531,171.816574 298.759064,175.164886 299.076447,178.463013 
	C299.196747,179.712936 300.519714,180.847137 301.294464,182.034103 
	C302.093536,180.862335 303.514008,179.727402 303.586029,178.512527 
	C303.930298,172.703781 303.683075,166.858002 304.077545,161.054733 
	C304.523773,154.490189 310.183258,149.737396 316.611603,150.056091 
	C322.385376,150.342331 324.955597,153.675613 325.076538,161.272873 
	C325.171906,167.262360 325.009277,173.259018 325.262421,179.239746 
	C325.302887,180.195908 326.925140,181.085129 327.816101,182.005295 
	C328.552826,181.142883 329.920044,180.285614 329.927124,179.417282 
	C329.986633,172.104691 330.477600,164.699982 329.523773,157.497116 
	C328.078491,146.583344 317.292694,142.348328 308.083038,148.512726 
	C306.807037,149.366806 305.577057,150.289612 303.737885,151.599197 
	C303.737885,146.390564 303.973694,142.063309 303.619720,137.784866 
	C303.481689,136.116608 302.016022,134.558197 301.155090,132.949768 
	C300.413055,134.479294 299.057129,135.997482 299.028625,137.540192 
	C298.844208,147.521393 298.949188,157.507935 298.960205,168.488235 
M265.514862,176.987457 
	C264.923981,176.230164 264.312012,175.488266 263.745483,174.713181 
	C257.846344,166.642563 257.979095,159.831909 264.143738,153.799713 
	C269.452057,148.605453 278.022125,148.694656 285.094269,153.950821 
	C286.037720,154.652023 287.201324,155.057007 288.495422,155.717865 
	C288.932159,150.154785 284.635773,146.813126 276.990662,146.046799 
	C265.695801,144.914642 256.310425,151.414627 255.084717,161.660797 
	C253.727402,173.006958 259.469025,180.593338 272.043091,182.966232 
	C278.972626,184.273941 288.046356,179.484863 289.210510,173.529510 
	C287.255035,174.167862 285.288910,174.228973 284.260803,175.242035 
	C278.693939,180.727463 272.472870,179.424377 265.514862,176.987457 
M399.706940,146.770752 
	C398.571075,147.393265 397.435211,148.015793 396.299347,148.638306 
	C398.241974,149.728699 400.184570,150.819107 402.737244,152.251938 
	C402.737244,153.238327 402.731964,154.870972 402.738220,156.503571 
	C402.764954,163.467300 402.639435,170.437836 402.942841,177.389587 
	C403.011353,178.958694 404.577942,180.462402 405.454926,181.996216 
	C406.027557,181.765686 406.600189,181.535156 407.172821,181.304642 
	C407.172821,171.231537 407.172821,161.158447 407.172821,151.961517 
	C410.038605,150.608749 412.173157,149.601135 414.307739,148.593521 
	C412.099976,147.719513 409.892181,146.845520 407.540863,145.914688 
	C405.691895,133.941406 405.691895,133.941406 402.690186,134.142258 
	C402.690186,137.051880 402.900970,140.034378 402.594696,142.962769 
	C402.456726,144.281799 401.287231,145.492950 399.706940,146.770752 
M424.248077,176.979294 
	C424.495972,170.854797 424.363739,164.683258 425.114227,158.620972 
	C425.695496,153.925156 428.058197,150.200409 433.780823,150.070282 
	C434.914673,150.044495 436.016022,148.590988 437.663696,147.417450 
	C431.993286,144.396301 428.585022,147.095840 425.917603,149.326843 
	C423.835175,148.319550 422.352997,147.602600 420.870819,146.885651 
	C420.357147,148.300461 419.418060,149.709595 419.399109,151.131012 
	C419.279449,160.095947 419.266693,169.065964 419.483734,178.027878 
	C419.517120,179.405045 420.736908,181.746582 421.721375,181.926422 
	C425.034698,182.531738 423.949615,179.623734 424.248077,176.979294 
M338.891541,172.437180 
	C338.898407,174.596008 338.710693,176.780945 338.995544,178.902451 
	C339.134827,179.939804 340.153351,180.859100 340.773926,181.831848 
	C341.724915,180.949692 343.486176,180.082687 343.502960,179.183044 
	C343.697021,168.801514 343.626831,158.415024 343.626831,148.029861 
	C343.047760,147.869171 342.468719,147.708481 341.889648,147.547791 
	C340.891510,150.369690 339.294250,153.136185 339.027100,156.025665 
	C338.555176,161.130142 338.893463,166.309509 338.891541,172.437180 
M339.926270,139.219818 
	C343.264832,139.939804 345.159851,138.631393 344.648834,135.198105 
	C344.483856,134.089722 342.980743,132.734421 341.813751,132.365814 
	C340.918091,132.082916 338.708221,133.050476 338.622620,133.673447 
	C338.390594,135.362473 338.978088,137.164078 339.926270,139.219818 
z"/>
<path fill="#3E1689" opacity="1.000000" stroke="none" 
	d="
M153.913910,149.003357 
	C154.212906,150.210281 154.511917,151.417206 154.891373,152.948898 
	C162.665451,144.634781 170.958466,143.096954 180.339020,149.855606 
	C187.159683,154.769882 189.414642,164.697922 185.999008,171.713898 
	C181.786545,180.366638 174.087479,184.169617 164.375931,181.706787 
	C163.999176,180.502594 164.000626,179.799469 164.424744,178.992981 
	C165.669418,178.841507 166.491394,178.752045 167.313416,178.751678 
	C175.528778,178.747955 180.929016,174.543060 182.312393,167.054840 
	C183.610718,160.027039 180.041107,153.356979 173.686111,150.936066 
	C166.861649,148.336288 159.975388,151.068634 155.590393,158.223877 
	C155.264008,158.980438 155.155716,159.542740 155.062469,160.348602 
	C155.077530,160.592133 154.852554,161.025208 154.607758,161.281158 
	C154.491776,163.342575 154.620605,165.148041 154.870743,167.264191 
	C155.009171,168.016891 155.026276,168.458923 155.033676,169.192978 
	C155.282867,169.979034 155.541779,170.473068 155.988174,171.226913 
	C156.476044,172.266174 156.776428,173.045624 157.031738,174.183472 
	C156.630997,175.432404 156.275330,176.322922 155.919662,177.213455 
	C155.284439,178.211960 154.144089,179.189087 154.100784,180.212646 
	C153.905670,184.822754 154.021683,189.446014 154.012772,194.532272 
	C153.250000,195.000000 152.500000,195.000000 151.375000,195.000000 
	C151.000000,195.000000 150.914719,194.519974 150.966034,193.807816 
	C151.018784,179.872849 151.007614,166.650009 151.034943,153.427261 
	C151.039169,151.387024 150.369400,148.790955 153.913910,149.003357 
z"/>
<path fill="#3E1789" opacity="1.000000" stroke="none" 
	d="
M452.208099,175.030624 
	C451.831665,174.212479 451.455231,173.394333 451.118073,171.897278 
	C452.138916,170.796494 453.120514,170.374603 454.102112,169.952728 
	C454.756805,170.850754 455.411499,171.748779 456.622498,173.409927 
	C459.005737,167.870804 460.749695,162.732040 463.360779,158.079956 
	C465.592804,154.103195 464.866791,147.402298 473.234222,146.573685 
	C465.824402,163.218216 458.910645,178.748520 451.998444,194.639404 
	C450.933319,195.000000 449.866669,195.000000 448.399963,195.000000 
	C449.274902,191.327820 450.641266,187.683884 451.787781,183.972046 
	C452.399475,181.991623 452.631317,179.893890 453.010010,177.153809 
	C452.726349,175.982544 452.467224,175.506577 452.208099,175.030624 
z"/>
<path fill="#3D1588" opacity="1.000000" stroke="none" 
	d="
M227.375000,195.000000 
	C227.984192,191.738770 228.571182,188.282913 230.050369,185.264221 
	C232.018204,181.248276 232.573746,177.572815 230.331314,173.178497 
	C231.264542,171.750839 231.819061,170.895752 232.373581,170.040680 
	C233.169571,171.042648 233.965561,172.044617 235.182541,173.576523 
	C238.833160,165.175034 242.002151,157.540009 245.517288,150.067810 
	C246.260864,148.487137 248.270370,147.501984 249.696625,146.242462 
	C250.199783,146.674408 250.702942,147.106369 251.206100,147.538315 
	C248.948517,152.769165 246.707886,158.007416 244.429642,163.229263 
	C240.319656,172.649597 236.203171,182.067215 232.041275,191.464676 
	C231.586349,192.491898 230.815964,193.379456 230.095947,194.665894 
	C229.250000,195.000000 228.500000,195.000000 227.375000,195.000000 
z"/>
<path fill="#391088" opacity="1.000000" stroke="none" 
	d="
M74.917694,8.858933 
	C109.065941,10.522306 133.216599,37.311058 132.027359,71.693451 
	C130.996384,101.500908 102.211555,127.723099 71.784142,126.653564 
	C38.124508,125.470428 12.263738,97.956779 13.767999,64.135612 
	C15.133195,33.441128 42.069763,8.364857 74.917694,8.858933 
M77.906136,116.991615 
	C77.906136,116.991615 77.731575,116.930435 77.493980,116.993256 
	C77.493980,116.993256 77.122581,117.303009 76.644188,117.859734 
	C75.338120,118.731812 74.032059,119.603889 72.277855,120.775192 
	C95.840485,121.872299 118.577644,104.621254 124.604607,81.621384 
	C128.678146,66.076088 124.824570,44.270645 117.202576,40.324749 
	C117.126205,41.017609 117.016579,41.662804 116.993271,42.311108 
	C116.963379,43.142311 116.901947,43.991596 117.027664,44.806309 
	C118.948151,57.252552 115.516785,68.499962 109.007195,78.892036 
	C103.822662,87.168739 98.615807,95.494293 92.628014,103.182205 
	C88.841087,108.044373 83.601379,111.775040 78.569786,116.142700 
	C78.284843,116.292740 78.080368,116.516365 77.906136,116.991615 
M22.416904,85.750793 
	C23.630899,87.287605 24.608807,89.116882 26.094948,90.316551 
	C43.329037,104.228607 70.647514,105.190323 88.612556,92.296150 
	C91.692101,90.085831 95.097198,86.992592 96.217911,83.601875 
	C104.864594,57.441483 90.481575,27.472723 64.384735,17.894014 
	C59.652134,16.156939 55.522408,16.504993 51.040279,18.681269 
	C25.196547,31.229549 13.812520,57.187328 22.416904,85.750793 
M110.972214,60.248165 
	C111.429474,56.121479 112.720894,51.877583 112.161118,47.893803 
	C111.159882,40.768246 111.182755,31.875942 106.947800,27.164907 
	C98.088730,17.309958 85.321999,13.871191 71.480637,14.714968 
	C94.445976,28.216658 106.021523,47.828094 104.079170,74.891045 
	C104.538559,74.856400 104.997948,74.821754 105.457344,74.787109 
	C107.247513,70.214478 109.037674,65.641838 110.972214,60.248165 
M49.405979,106.155243 
	C43.700153,104.744514 37.994331,103.333794 31.387409,101.700279 
	C37.801334,110.687592 55.103134,120.142540 61.580444,118.834869 
	C69.976646,117.139809 84.566330,106.417091 85.595764,101.169975 
	C79.936409,102.822731 74.369682,105.123726 68.592125,105.949257 
	C62.594067,106.806305 56.391994,106.235535 49.405979,106.155243 
z"/>
<path fill="#340887" opacity="1.000000" stroke="none" 
	d="
M424.708557,40.544388 
	C439.980927,38.906162 452.311768,43.678459 462.667267,56.781593 
	C462.667267,40.675999 462.667267,26.196594 462.667267,11.951535 
	C463.758423,11.449533 464.187683,11.097249 464.638031,11.067798 
	C473.085938,10.515295 473.079498,10.523302 473.072235,19.000267 
	C473.044067,51.827911 473.032837,84.655571 472.983368,117.483185 
	C472.975433,122.753883 469.716553,124.973595 464.703003,122.997696 
	C463.842041,122.658363 463.173920,121.086311 462.976196,119.983414 
	C462.686798,118.369019 462.902924,116.664024 462.903290,114.997643 
	C462.903595,113.569466 462.903381,112.141289 462.903381,109.734032 
	C445.834045,126.765953 427.391144,130.531326 407.286896,118.068016 
	C392.728821,109.042953 385.798645,90.528175 389.490112,73.506622 
	C393.229156,56.265919 406.625641,43.613598 424.708557,40.544388 
M401.207458,71.053703 
	C398.146088,79.950424 398.303589,88.592018 402.572021,97.194420 
	C408.918274,109.984268 421.054108,116.700211 435.795227,115.182030 
	C448.145630,113.910072 459.090240,104.474022 462.148651,92.460930 
	C465.918671,77.652939 460.890961,63.604233 449.593689,55.652824 
	C436.554749,46.475582 411.258789,47.740314 401.207458,71.053703 
z"/>
<path fill="#360C88" opacity="1.000000" stroke="none" 
	d="
M260.491547,106.512108 
	C262.380066,104.161644 264.283997,102.212135 265.554199,99.912582 
	C267.242828,96.855492 269.096771,96.626656 272.014465,98.177292 
	C276.927155,100.788185 277.133545,101.171814 274.014648,105.974701 
	C260.803345,126.319412 231.628418,131.742844 212.410934,117.426437 
	C193.283005,103.176788 190.247284,72.936424 206.101562,54.575829 
	C217.784546,41.045986 235.453873,36.592213 252.819153,42.800091 
	C268.037994,48.240639 278.853302,63.539894 279.133514,80.062469 
	C279.149963,81.032303 278.969971,82.005463 278.833160,83.506302 
	C254.969208,83.506302 231.230682,83.506302 206.989182,83.506302 
	C206.500626,91.662903 208.705154,98.382675 213.527023,104.183739 
	C225.556076,118.655548 244.224991,119.634079 260.491547,106.512108 
M208.876801,70.454140 
	C207.323837,73.884445 208.600616,74.658646 212.098969,74.629135 
	C229.428726,74.482903 246.760574,74.591499 264.091675,74.577881 
	C265.168396,74.577034 266.244904,74.299423 267.639404,74.106621 
	C266.574188,67.975121 264.074127,63.015633 259.916992,58.995487 
	C243.799789,43.409309 218.617752,48.764313 208.876801,70.454140 
z"/>
<path fill="#360C88" opacity="1.000000" stroke="none" 
	d="
M497.460632,63.495193 
	C509.081604,39.473530 544.701355,29.438614 567.132935,56.178051 
	C567.132935,52.107944 567.247375,48.888260 567.102234,45.680325 
	C566.942200,42.144371 569.186462,41.934006 571.689331,42.208687 
	C574.040527,42.466721 577.623230,40.916191 577.619263,45.364685 
	C577.596558,70.673386 577.499756,95.982040 577.399475,121.290588 
	C577.397705,121.744415 577.041565,122.196846 576.395813,123.730354 
	C573.449768,123.012993 568.867004,123.209061 567.597595,121.253937 
	C566.031982,118.842438 567.223450,114.640846 567.223450,110.170372 
	C564.418274,112.534477 562.503296,114.221092 560.513245,115.813889 
	C546.335144,127.161850 528.594604,128.383392 512.990479,119.110687 
	C498.901733,110.738495 490.596191,92.644661 493.586121,76.185364 
	C494.350128,71.979576 496.021637,67.938644 497.460632,63.495193 
M524.380676,113.447403 
	C544.839355,120.310242 564.098999,108.833954 567.603333,87.692192 
	C569.684753,75.135529 563.588196,61.563057 552.901855,54.962677 
	C541.942200,48.193523 526.948364,48.724136 516.697266,56.556587 
	C497.066376,71.555763 499.720581,102.235542 524.380676,113.447403 
z"/>
<path fill="#370D87" opacity="1.000000" stroke="none" 
	d="
M369.176147,70.741486 
	C369.414917,87.332954 369.541534,103.477386 369.839752,119.618637 
	C369.931213,124.569107 366.420319,122.903236 363.933655,123.220558 
	C360.732971,123.629005 359.064270,122.752136 359.097107,118.965935 
	C359.227142,103.985023 359.194946,88.999916 358.985474,74.019691 
	C358.809845,61.460819 354.243622,53.788883 345.820312,51.096531 
	C334.990936,47.635113 323.116882,51.576939 316.066376,60.899334 
	C311.893127,66.417305 309.912384,72.648514 309.858826,79.504753 
	C309.756042,92.654556 309.728516,105.804932 309.636169,118.954834 
	C309.627136,120.240158 309.384338,121.523849 309.235382,122.948914 
	C305.824554,122.948914 302.737244,122.948914 299.289520,122.948914 
	C299.172638,121.251984 298.986542,119.805565 298.986298,118.359123 
	C298.982086,95.715981 299.008423,73.072838 299.012939,50.429691 
	C299.014801,41.157902 298.998810,41.157898 309.141998,42.624268 
	C309.141998,46.585331 309.141998,50.640923 309.141998,54.696510 
	C309.705383,55.098083 310.268738,55.499657 310.832123,55.901230 
	C312.025482,54.269005 313.065704,52.493664 314.436493,51.027294 
	C325.035217,39.689285 341.820862,36.792595 355.075439,44.296852 
	C365.061676,49.950687 368.490021,59.438107 369.176147,70.741486 
z"/>
<path fill="#370D88" opacity="1.000000" stroke="none" 
	d="
M161.180313,93.044952 
	C161.179779,103.169006 161.179779,112.800186 161.179779,122.102257 
	C160.440262,122.618027 160.189682,122.939369 159.910980,122.965981 
	C150.271042,123.886536 150.293076,123.882599 150.314255,114.233162 
	C150.363251,91.906006 150.547028,69.577049 150.301361,47.252953 
	C150.246277,42.246719 152.530212,42.144680 156.328995,41.996120 
	C160.509827,41.832615 161.674973,43.469856 161.194412,47.251934 
	C160.999451,48.786293 161.162231,50.366108 161.162231,53.195999 
	C169.699722,43.351799 178.096573,36.630688 190.702805,42.543655 
	C188.180923,50.135082 187.622574,50.444874 180.598297,50.460377 
	C173.838638,50.475296 169.598236,54.647724 166.244827,59.890804 
	C161.517334,67.282272 161.915314,75.799690 161.270782,84.056938 
	C161.050903,86.873825 161.200211,89.719536 161.180313,93.044952 
z"/>
<path fill="#F8F8F9" opacity="1.000000" stroke="none" 
	d="
M366.032532,182.987640 
	C363.121277,181.543839 360.209991,180.100037 357.520020,178.377930 
	C361.586975,176.755249 359.621246,175.063629 358.259644,173.007706 
	C354.686035,167.611771 355.357941,162.076569 358.456482,156.719803 
	C361.211365,151.957062 365.478851,149.653122 370.936432,150.178116 
	C377.323517,150.792511 381.481659,154.539551 383.527222,160.490402 
	C386.465088,169.037079 379.337982,178.793579 370.329224,178.755264 
	C367.925110,178.745026 365.520935,178.753723 362.347168,178.753723 
	C363.978302,180.627640 365.005402,181.807648 366.032532,182.987640 
z"/>
<path fill="#401B88" opacity="1.000000" stroke="none" 
	d="
M298.959747,167.990479 
	C298.949188,157.507935 298.844208,147.521393 299.028625,137.540192 
	C299.057129,135.997482 300.413055,134.479294 301.155090,132.949768 
	C302.016022,134.558197 303.481689,136.116608 303.619720,137.784866 
	C303.973694,142.063309 303.737885,146.390564 303.737885,151.599197 
	C305.577057,150.289612 306.807037,149.366806 308.083038,148.512726 
	C317.292694,142.348328 328.078491,146.583344 329.523773,157.497116 
	C330.477600,164.699982 329.986633,172.104691 329.927124,179.417282 
	C329.920044,180.285614 328.552826,181.142883 327.816101,182.005295 
	C326.925140,181.085129 325.302887,180.195908 325.262421,179.239746 
	C325.009277,173.259018 325.171906,167.262360 325.076538,161.272873 
	C324.955597,153.675613 322.385376,150.342331 316.611603,150.056091 
	C310.183258,149.737396 304.523773,154.490189 304.077545,161.054733 
	C303.683075,166.858002 303.930298,172.703781 303.586029,178.512527 
	C303.514008,179.727402 302.093536,180.862335 301.294464,182.034088 
	C300.519714,180.847137 299.196747,179.712936 299.076447,178.463013 
	C298.759064,175.164886 298.963531,171.816574 298.959747,167.990479 
z"/>
<path fill="#340988" opacity="1.000000" stroke="none" 
	d="
M366.465668,183.000092 
	C365.005402,181.807648 363.978302,180.627640 362.347168,178.753723 
	C365.520935,178.753723 367.925110,178.745026 370.329224,178.755264 
	C379.337982,178.793579 386.465088,169.037079 383.527222,160.490402 
	C381.481659,154.539551 377.323517,150.792511 370.936432,150.178116 
	C365.478851,149.653122 361.211365,151.957062 358.456482,156.719803 
	C355.357941,162.076569 354.686035,167.611771 358.259644,173.007706 
	C359.621246,175.063629 361.586975,176.755249 357.364685,178.073776 
	C349.511475,168.983475 349.584045,158.140701 357.169495,150.955872 
	C363.768250,144.705612 372.398804,144.209595 379.530273,149.644440 
	C380.618958,150.474136 381.788910,151.197144 382.017426,151.352997 
	C384.190399,149.894394 385.679352,148.894958 387.541748,148.469971 
	C387.969391,159.717712 388.023560,170.390991 388.077728,181.064270 
	C388.077728,181.064270 388.000000,181.015457 387.648621,181.070847 
	C386.262604,181.042435 385.227997,180.958649 384.193420,180.874847 
	C384.132416,180.167709 384.071411,179.460556 383.926636,178.050568 
	C382.901428,177.575317 381.959991,177.802933 381.018555,178.030548 
	C381.018555,178.030533 381.001404,177.998383 380.753601,178.015289 
	C380.331940,178.315094 380.158112,178.597977 379.984314,178.880859 
	C376.254852,182.260895 371.847504,183.493881 366.465668,183.000092 
z"/>
<path fill="#3A1289" opacity="1.000000" stroke="none" 
	d="
M265.806213,177.219452 
	C272.472870,179.424377 278.693939,180.727463 284.260803,175.242035 
	C285.288910,174.228973 287.255035,174.167862 289.210510,173.529510 
	C288.046356,179.484863 278.972626,184.273941 272.043091,182.966232 
	C259.469025,180.593338 253.727402,173.006958 255.084717,161.660797 
	C256.310425,151.414627 265.695801,144.914642 276.990662,146.046799 
	C284.635773,146.813126 288.932159,150.154785 288.495422,155.717865 
	C287.201324,155.057007 286.037720,154.652023 285.094269,153.950821 
	C278.022125,148.694656 269.452057,148.605453 264.143738,153.799713 
	C257.979095,159.831909 257.846344,166.642563 263.745483,174.713181 
	C264.312012,175.488266 264.923981,176.230164 265.806213,177.219452 
z"/>
<path fill="#3A1289" opacity="1.000000" stroke="none" 
	d="
M400.146362,146.761902 
	C401.287231,145.492950 402.456726,144.281799 402.594696,142.962769 
	C402.900970,140.034378 402.690186,137.051880 402.690186,134.142258 
	C405.691895,133.941406 405.691895,133.941406 407.540863,145.914688 
	C409.892181,146.845520 412.099976,147.719513 414.307739,148.593521 
	C412.173157,149.601135 410.038605,150.608749 407.172821,151.961517 
	C407.172821,161.158447 407.172821,171.231537 407.172821,181.304642 
	C406.600189,181.535156 406.027557,181.765686 405.454926,181.996216 
	C404.577942,180.462402 403.011353,178.958694 402.942841,177.389587 
	C402.639435,170.437836 402.764954,163.467300 402.738220,156.503571 
	C402.731964,154.870972 402.737244,153.238327 402.737244,152.251938 
	C400.184570,150.819107 398.241974,149.728699 396.299347,148.638306 
	C397.435211,148.015793 398.571075,147.393265 400.146362,146.761902 
z"/>
<path fill="#45208C" opacity="1.000000" stroke="none" 
	d="
M424.244812,177.427353 
	C423.949615,179.623734 425.034698,182.531738 421.721375,181.926422 
	C420.736908,181.746582 419.517120,179.405045 419.483734,178.027878 
	C419.266693,169.065964 419.279449,160.095947 419.399109,151.131012 
	C419.418060,149.709595 420.357147,148.300461 420.870819,146.885651 
	C422.352997,147.602600 423.835175,148.319550 425.917603,149.326843 
	C428.585022,147.095840 431.993286,144.396301 437.663696,147.417450 
	C436.016022,148.590988 434.914673,150.044495 433.780823,150.070282 
	C428.058197,150.200409 425.695496,153.925156 425.114227,158.620972 
	C424.363739,164.683258 424.495972,170.854797 424.244812,177.427353 
z"/>
<path fill="#45208C" opacity="1.000000" stroke="none" 
	d="
M203.190689,161.918381 
	C208.302017,162.755707 213.015396,166.731506 213.649521,171.113266 
	C214.315369,175.713974 212.256073,179.207306 208.400604,181.580902 
	C204.682465,183.869980 198.400116,183.206879 194.819931,180.091949 
	C194.040970,179.414200 193.922485,177.977371 193.499802,176.890152 
	C194.772476,176.725754 196.071075,176.332626 197.309219,176.472931 
	C198.217896,176.575928 198.994888,177.540390 199.921417,177.839874 
	C203.344604,178.946304 206.704971,178.961182 208.572083,175.322174 
	C210.471283,171.620575 208.582260,168.975861 205.348175,167.079514 
	C203.775391,166.157303 202.165649,165.298126 200.595490,164.056854 
	C201.475800,163.108322 202.333237,162.513351 203.190689,161.918381 
z"/>
<path fill="#4D2A90" opacity="1.000000" stroke="none" 
	d="
M338.892090,171.947357 
	C338.893463,166.309509 338.555176,161.130142 339.027100,156.025665 
	C339.294250,153.136185 340.891510,150.369690 341.889648,147.547791 
	C342.468719,147.708481 343.047760,147.869171 343.626831,148.029861 
	C343.626831,158.415024 343.697021,168.801514 343.502960,179.183044 
	C343.486176,180.082687 341.724915,180.949692 340.773926,181.831848 
	C340.153351,180.859100 339.134827,179.939804 338.995544,178.902451 
	C338.710693,176.780945 338.898407,174.596008 338.892090,171.947357 
z"/>
<path fill="#431E8C" opacity="1.000000" stroke="none" 
	d="
M203.096283,161.666168 
	C202.333237,162.513351 201.475800,163.108322 200.335266,163.840958 
	C193.966537,159.759842 192.294281,154.427567 195.645905,149.928558 
	C199.100494,145.291321 206.110275,144.450226 210.725296,148.321991 
	C211.611511,149.065475 211.797867,150.643112 212.307083,151.835922 
	C211.150085,151.806274 209.729553,152.200821 208.881485,151.673935 
	C205.114151,149.333282 201.693222,149.529434 198.555542,152.414581 
	C197.550095,156.642456 198.940918,159.714462 203.096283,161.666168 
z"/>
<path fill="#431E8C" opacity="1.000000" stroke="none" 
	d="
M454.074677,169.580078 
	C453.120514,170.374603 452.138916,170.796494 451.094482,171.559570 
	C447.259674,163.873642 443.487732,155.846542 439.715790,147.819458 
	C440.172760,147.349442 440.629700,146.879425 441.086639,146.409424 
	C442.557861,147.512024 444.671600,148.301102 445.389099,149.771500 
	C448.497620,156.141586 451.198273,162.710693 454.074677,169.580078 
z"/>
<path fill="#3E1789" opacity="1.000000" stroke="none" 
	d="
M232.251587,169.723328 
	C231.819061,170.895752 231.264542,171.750839 230.371552,172.797287 
	C226.183365,164.639023 222.333633,156.289398 218.483917,147.939789 
	C218.941574,147.467209 219.399216,146.994629 219.856873,146.522049 
	C221.323212,147.636185 223.468781,148.442139 224.138336,149.917801 
	C227.037338,156.307129 229.505020,162.892151 232.251587,169.723328 
z"/>
<path fill="#431D8C" opacity="1.000000" stroke="none" 
	d="
M153.897980,148.658188 
	C150.369400,148.790955 151.039169,151.387024 151.034943,153.427261 
	C151.007614,166.650009 151.018784,179.872849 151.000351,193.566467 
	C150.744156,185.927322 150.423401,177.818710 150.290268,169.707001 
	C150.173096,162.568481 150.265747,155.426529 150.265747,147.836929 
	C151.753983,148.032852 152.818024,148.172928 153.897980,148.658188 
z"/>
<path fill="#401B88" opacity="1.000000" stroke="none" 
	d="
M339.583435,139.070435 
	C338.978088,137.164078 338.390594,135.362473 338.622620,133.673447 
	C338.708221,133.050476 340.918091,132.082916 341.813751,132.365814 
	C342.980743,132.734421 344.483856,134.089722 344.648834,135.198105 
	C345.159851,138.631393 343.264832,139.939804 339.583435,139.070435 
z"/>
<path fill="#78659C" opacity="1.000000" stroke="none" 
	d="
M388.356689,180.750549 
	C388.023560,170.390991 387.969391,159.717712 387.945923,148.584106 
	C388.275024,149.170456 388.832581,150.217407 388.831451,151.263763 
	C388.820953,160.988174 388.714386,170.712479 388.356689,180.750549 
z"/>
<path fill="#431D8C" opacity="1.000000" stroke="none" 
	d="
M164.002090,179.096359 
	C164.000626,179.799469 163.999176,180.502594 164.000549,181.557251 
	C161.410599,180.542953 158.817810,179.177124 156.072357,177.512360 
	C156.275330,176.322922 156.630997,175.432404 157.336899,174.326660 
	C159.792114,175.773087 161.897110,177.434723 164.002090,179.096359 
z"/>
<path fill="#78659C" opacity="1.000000" stroke="none" 
	d="
M384.244537,181.243805 
	C385.227997,180.958649 386.262604,181.042435 387.687073,181.099487 
	C386.816528,181.252747 385.556122,181.432755 384.244537,181.243805 
z"/>
<path fill="#78659C" opacity="1.000000" stroke="none" 
	d="
M381.394897,178.048660 
	C381.959991,177.802933 382.901428,177.575317 383.916931,177.694916 
	C383.251038,178.050354 382.511139,178.058563 381.394897,178.048660 
z"/>
<path fill="#431E8C" opacity="1.000000" stroke="none" 
	d="
M452.184204,175.311356 
	C452.467224,175.506577 452.726349,175.982544 452.983398,176.741608 
	C452.707642,176.547165 452.433990,176.069626 452.184204,175.311356 
z"/>
<path fill="#78659C" opacity="1.000000" stroke="none" 
	d="
M380.096008,179.081909 
	C380.158112,178.597977 380.331940,178.315094 380.767883,178.027069 
	C380.755951,178.442261 380.481842,178.862610 380.096008,179.081909 
z"/>
<path fill="#FAFAFB" opacity="1.000000" stroke="none" 
	d="
M164.424744,178.992981 
	C161.897110,177.434723 159.792114,175.773087 157.381973,173.968262 
	C156.776428,173.045624 156.476044,172.266174 156.004913,170.941528 
	C155.570572,169.897858 155.306976,169.399399 155.043381,168.900940 
	C155.026276,168.458923 155.009171,168.016891 154.934509,166.845093 
	C154.868820,164.418594 154.860687,162.721909 154.852554,161.025208 
	C154.852554,161.025208 155.077530,160.592133 155.257935,160.136002 
	C155.561707,159.129791 155.685089,158.579712 155.808472,158.029633 
	C159.975388,151.068634 166.861649,148.336288 173.686111,150.936066 
	C180.041107,153.356979 183.610718,160.027039 182.312393,167.054840 
	C180.929016,174.543060 175.528778,178.747955 167.313416,178.751678 
	C166.491394,178.752045 165.669418,178.841507 164.424744,178.992981 
z"/>
<path fill="#431D8C" opacity="1.000000" stroke="none" 
	d="
M154.607758,161.281158 
	C154.860687,162.721909 154.868820,164.418594 154.813202,166.534393 
	C154.620605,165.148041 154.491776,163.342575 154.607758,161.281158 
z"/>
<path fill="#431D8C" opacity="1.000000" stroke="none" 
	d="
M155.590393,158.223877 
	C155.685089,158.579712 155.561707,159.129791 155.242859,159.892456 
	C155.155716,159.542740 155.264008,158.980438 155.590393,158.223877 
z"/>
<path fill="#431D8C" opacity="1.000000" stroke="none" 
	d="
M155.033676,169.192978 
	C155.306976,169.399399 155.570572,169.897858 155.817413,170.681702 
	C155.541779,170.473068 155.282867,169.979034 155.033676,169.192978 
z"/>
<path fill="#FDFDFD" opacity="1.000000" stroke="none" 
	d="
M22.274460,85.383316 
	C13.812520,57.187328 25.196547,31.229549 51.040279,18.681269 
	C55.522408,16.504993 59.652134,16.156939 64.384735,17.894014 
	C90.481575,27.472723 104.864594,57.441483 96.217911,83.601875 
	C95.097198,86.992592 91.692101,90.085831 88.612556,92.296150 
	C70.647514,105.190323 43.329037,104.228607 26.094948,90.316551 
	C24.608807,89.116882 23.630899,87.287605 22.274460,85.383316 
z"/>
<path fill="#F9F9FA" opacity="1.000000" stroke="none" 
	d="
M79.013268,116.013199 
	C83.601379,111.775040 88.841087,108.044373 92.628014,103.182205 
	C98.615807,95.494293 103.822662,87.168739 109.007195,78.892036 
	C115.516785,68.499962 118.948151,57.252552 117.027664,44.806309 
	C116.901947,43.991596 116.963379,43.142311 116.993271,42.311108 
	C117.016579,41.662804 117.126205,41.017609 117.202576,40.324749 
	C124.824570,44.270645 128.678146,66.076088 124.604607,81.621384 
	C118.577644,104.621254 95.840485,121.872299 72.277855,120.775192 
	C74.032059,119.603889 75.338120,118.731812 77.026428,117.624405 
	C77.632729,117.318314 77.740364,117.165428 77.731575,116.930435 
	C77.731575,116.930435 77.906136,116.991615 78.178253,116.887512 
	C78.781509,116.631569 78.969139,116.374825 79.013268,116.013199 
z"/>
<path fill="#F7F7F8" opacity="1.000000" stroke="none" 
	d="
M110.900024,60.658684 
	C109.037674,65.641838 107.247513,70.214478 105.457344,74.787109 
	C104.997948,74.821754 104.538559,74.856400 104.079170,74.891045 
	C106.021523,47.828094 94.445976,28.216658 71.480637,14.714968 
	C85.321999,13.871191 98.088730,17.309958 106.947800,27.164907 
	C111.182755,31.875942 111.159882,40.768246 112.161118,47.893803 
	C112.720894,51.877583 111.429474,56.121479 110.900024,60.658684 
z"/>
<path fill="#F6F6F7" opacity="1.000000" stroke="none" 
	d="
M49.842560,106.222214 
	C56.391994,106.235535 62.594067,106.806305 68.592125,105.949257 
	C74.369682,105.123726 79.936409,102.822731 85.597343,101.176201 
	C84.566330,106.417091 69.976646,117.139809 61.580444,118.834869 
	C55.103134,120.142540 37.801334,110.687592 31.387409,101.700279 
	C37.994331,103.333794 43.700153,104.744514 49.842560,106.222214 
z"/>
<path fill="#45208C" opacity="1.000000" stroke="none" 
	d="
M77.612778,116.961845 
	C77.740364,117.165428 77.632729,117.318314 77.265625,117.346046 
	C77.122581,117.303009 77.493980,116.993256 77.612778,116.961845 
z"/>
<path fill="#45208C" opacity="1.000000" stroke="none" 
	d="
M78.791527,116.077950 
	C78.969139,116.374825 78.781509,116.631569 78.203369,116.798500 
	C78.080368,116.516365 78.284843,116.292740 78.791527,116.077950 
z"/>
<path fill="#FDFDFD" opacity="1.000000" stroke="none" 
	d="
M401.365692,70.696358 
	C411.258789,47.740314 436.554749,46.475582 449.593689,55.652824 
	C460.890961,63.604233 465.918671,77.652939 462.148651,92.460930 
	C459.090240,104.474022 448.145630,113.910072 435.795227,115.182030 
	C421.054108,116.700211 408.918274,109.984268 402.572021,97.194420 
	C398.303589,88.592018 398.146088,79.950424 401.365692,70.696358 
z"/>
<path fill="#F9F9FA" opacity="1.000000" stroke="none" 
	d="
M209.001312,70.096359 
	C218.617752,48.764313 243.799789,43.409309 259.916992,58.995487 
	C264.074127,63.015633 266.574188,67.975121 267.639404,74.106621 
	C266.244904,74.299423 265.168396,74.577034 264.091675,74.577881 
	C246.760574,74.591499 229.428726,74.482903 212.098969,74.629135 
	C208.600616,74.658646 207.323837,73.884445 209.001312,70.096359 
z"/>
<path fill="#FDFDFD" opacity="1.000000" stroke="none" 
	d="
M524.015259,113.302353 
	C499.720581,102.235542 497.066376,71.555763 516.697266,56.556587 
	C526.948364,48.724136 541.942200,48.193523 552.901855,54.962677 
	C563.588196,61.563057 569.684753,75.135529 567.603333,87.692192 
	C564.098999,108.833954 544.839355,120.310242 524.015259,113.302353 
z"/>
</svg>