<svg width="521" height="521" viewBox="0 0 521 521" fill="none" xmlns="http://www.w3.org/2000/svg">
<mask id="mask0_1081_105968" style="mask-type:luminance" maskUnits="userSpaceOnUse" x="0" y="0" width="521" height="521">
<path d="M521 0H0V521H521V0Z" fill="white"/>
</mask>
<g mask="url(#mask0_1081_105968)">
<path d="M498.463 339.754C498.366 340.139 498.269 340.526 498.269 340.911C490.448 381.465 457.81 411.206 421.408 428.393C420.635 428.78 419.863 429.165 419.09 429.456C415.518 431.098 411.945 432.546 408.373 433.995C406.055 434.862 403.737 435.731 401.422 436.504C401.131 436.601 400.84 436.697 400.455 436.794C377.282 444.615 353.334 451.181 328.906 455.913C315.968 458.422 302.93 460.45 289.798 461.804C279.66 462.864 269.522 463.637 259.48 464.022C246.83 464.506 234.183 464.313 221.63 463.443C215.643 463.058 209.656 462.479 203.766 461.804C163.019 457.071 123.432 444.712 93.9807 414.103C61.151 379.922 50.1432 342.65 54.4882 306.246C56.4184 290.026 61.3422 273.997 68.7777 258.548C74.6679 246.092 82.2003 234.02 90.9871 222.434C91.1809 222.143 91.469 221.855 91.6628 221.564C92.5324 220.501 93.3024 219.346 94.1719 218.283C94.4626 217.895 94.7507 217.607 94.9445 217.219C102.186 208.142 110.106 199.454 118.796 191.246C119.859 190.28 120.918 189.219 121.981 188.253C122.078 188.156 122.175 188.059 122.272 188.059C122.659 187.768 122.945 187.383 123.332 187.093L123.429 186.998C124.492 186.032 125.553 185.068 126.617 184.102C127.098 183.62 127.583 183.135 128.162 182.748C135.982 175.797 143.996 169.134 152.301 162.859C164.661 153.396 177.405 144.609 190.634 136.498C198.263 131.765 206.083 127.227 213.904 122.882C215.546 121.915 217.282 121.048 219.021 120.082C226.166 116.219 233.314 112.549 240.652 109.074C242.197 108.301 243.74 107.626 245.285 106.853C272.612 93.7211 302.836 80.6862 333.251 78.659C334.024 78.659 334.699 78.5621 335.472 78.5621C349.376 77.8864 363.281 79.6255 376.991 84.7431C416.872 99.614 443.038 141.809 462.252 177.536C486.973 224.367 508.022 286.454 498.463 339.754Z" fill="#2E0086"/>
<path d="M498.172 341.006C490.352 381.559 457.713 411.301 421.311 428.487C416.966 430.514 412.621 432.35 408.276 434.087C405.958 434.956 403.643 435.826 401.325 436.598C377.861 444.613 353.528 451.275 328.809 456.102C315.871 458.614 302.836 460.641 289.704 461.993C279.566 463.056 269.425 463.828 259.384 464.214C246.734 464.695 234.086 464.504 221.533 463.635C215.546 463.247 209.559 462.668 203.669 461.993C203.669 461.029 203.863 460.159 203.96 459.193L237.659 443.646C268.461 406.568 308.048 378.181 347.928 350.951C351.983 348.151 356.039 345.448 360.094 342.648C375.156 332.413 390.702 321.984 408.373 317.736C439.464 310.3 470.848 322.95 498.172 341.006Z" fill="#2E0086"/>
<path d="M223.239 57.6514C224.108 60.2573 221.984 60.4537 220.536 60.8387C214.067 62.769 207.792 65.1837 201.226 67.0171C179.21 73.4861 157.098 79.9577 135.082 86.3299C132.861 87.0056 130.64 88.0663 128.516 86.0392C122.335 80.7277 116.157 75.4189 109.882 70.1075C109.303 69.6256 108.528 69.1411 108.624 68.4654C108.915 67.4021 109.976 67.7897 110.749 67.7897C121.466 66.8233 132.185 65.7625 142.806 64.893C152.656 64.0235 162.6 63.5416 172.354 62.4783C181.719 61.4149 219.088 58.6178 223.239 57.6514Z" fill="#CECECE"/>
<path d="M128.517 86.1331C129.868 85.9393 131.222 85.845 132.477 85.4574C161.54 77.0581 222.854 59.8694 223.242 57.6484C224.884 57.5515 226.621 57.0696 228.36 57.4546C225.078 60.9301 220.827 62.8629 216.482 64.5051C215.325 64.987 214.261 65.5658 213.295 66.2415C206.15 68.1717 199.969 72.3255 192.921 74.5465C188.189 76.2855 183.556 78.4069 179.114 80.9186C168.782 84.6848 158.837 89.4174 148.796 93.7624C147.636 94.2443 146.381 94.1474 145.415 95.0169C144.16 95.9833 142.712 96.4652 141.263 96.8502C139.333 99.0712 138.27 101.874 137.015 104.479C135.761 106.991 134.601 109.5 132.862 111.721C132.765 112.494 132.186 112.591 131.51 112.591C130.641 104.867 129.871 97.1409 129.001 89.4174C129.001 88.2598 128.71 87.1964 128.517 86.1331Z" fill="#A8A8A8"/>
<path d="M139.62 95.793C142.323 98.2077 144.932 100.62 147.634 102.938C147.828 103.71 147.731 105.062 147.731 105.062L131.606 112.594C131.606 112.497 138.463 98.1108 139.62 95.793Z" fill="#8B8B8B"/>
<path d="M139.62 95.787C140.102 99.8413 163.278 117.318 164.147 117.706C165.693 118.188 166.656 117.415 167.429 116.161C167.526 115.87 167.72 115.582 167.817 115.291C171.004 112.201 226.041 62.0878 228.358 57.4521C223.144 59.8669 141.262 95.2082 139.62 95.787Z" fill="#CECECE"/>
<path d="M418.991 429.549C415.419 431.191 411.846 432.639 408.274 434.087C405.956 434.954 403.638 435.824 401.323 436.596C401.032 436.693 400.741 436.79 400.356 436.887L403.253 401.837L405.859 370.068L407.983 344.867L410.689 366.013L415.322 401.933L418.991 429.549Z" fill="#6D573E"/>
<path d="M417.254 218.283C436.37 269.168 438.785 326.428 436.661 354.622C434.44 384.461 421.405 405.413 407.886 403.386C396.011 401.647 382.492 385.522 383.652 333.767C384.809 282.012 394.851 236.244 401.514 218.38C407.886 201.191 411.267 202.351 417.254 218.283Z" fill="#5083B5"/>
<path d="M422.273 233.053C436.756 279.884 438.492 329.127 436.659 354.524C434.438 384.36 421.403 405.312 407.884 403.285C396.876 401.643 384.613 387.835 383.647 345.252C408.368 412.266 435.404 338.011 422.273 233.053Z" fill="#3E698C"/>
<path d="M421.308 428.485C416.963 430.513 412.618 432.349 408.273 434.085C405.956 434.954 403.638 435.824 401.322 436.597C377.858 444.611 353.525 451.274 328.806 456.101C325.04 456.873 321.274 457.549 317.508 458.128C309.397 459.482 301.191 460.639 292.983 461.606C291.92 461.703 290.762 461.894 289.699 461.991C284.484 462.57 279.273 463.054 273.961 463.439C269.134 463.827 264.208 464.018 259.381 464.212C246.731 464.694 234.084 464.503 221.531 463.633C215.544 463.245 209.556 462.667 203.666 461.991C162.919 457.261 123.33 444.902 93.8786 414.29C61.049 380.109 50.0412 342.838 54.3861 306.436C64.3306 299.579 74.2804 292.822 84.2249 286.062C104.116 272.545 124.584 258.832 147.854 253.135C191.789 242.515 236.111 262.307 273.961 288.668C280.236 293.013 286.32 297.552 292.114 302.187C292.404 302.381 292.693 302.669 292.983 302.863C301.288 309.429 309.397 316.189 317.411 323.14L317.508 323.237C327.84 332.217 337.978 341.486 347.829 350.949C373.514 375.57 397.844 401.74 421.308 428.485Z" fill="url(#paint0_linear_1081_105968)"/>
<path d="M317.507 336.759V458.133C309.399 459.484 301.191 460.642 292.983 461.608C291.919 461.705 290.764 461.897 289.701 461.993C284.486 462.575 279.272 463.057 273.96 463.442V265.788H292.983L317.025 269.457L317.413 323.239L317.507 336.759Z" fill="#4F3F2D"/>
<g opacity="0.3">
<path d="M317.506 265.788V458.133C309.395 459.484 301.19 460.642 292.981 461.608V265.788H317.506Z" fill="#D9A585"/>
</g>
<path d="M416.578 172.801V273.223C416.578 282.879 409.045 290.7 399.777 290.7H118.793V172.801C118.793 136.496 147.084 107.142 182.038 107.142H353.331C358.063 107.142 362.699 107.72 367.141 108.687C393.211 114.674 413.199 137.363 416.19 165.365C416.481 167.78 416.578 170.289 416.578 172.801Z" fill="#6F82BE"/>
<path d="M245.282 287.318H118.793V169.519C118.793 136.883 145.251 110.52 177.789 110.52H186.286C218.921 110.52 245.282 136.98 245.282 169.519V287.318Z" fill="#6BB4DD"/>
<path d="M241.901 173.762V283.935H122.169V173.762C122.169 152.038 133.756 133.015 151.136 122.49C160.211 116.984 170.737 113.896 182.035 113.896C215.059 113.896 241.901 140.739 241.901 173.762Z" fill="#8A69C8"/>
<g opacity="0.3">
<path d="M241.904 173.767V283.94H215.059C215.156 280.27 215.349 276.698 215.543 273.126C227.999 102.314 150.848 123.073 150.848 123.073L151.138 122.591C160.216 117.086 170.742 113.995 182.038 113.995C215.061 113.898 241.904 140.744 241.904 173.767Z" fill="#2E0086"/>
</g>
<path d="M399.777 283.941H118.793V290.795H399.777C409.045 290.795 416.578 282.974 416.578 273.318V266.464C416.578 276.12 409.045 283.941 399.777 283.941Z" fill="#40217D"/>
<g opacity="0.3">
<path d="M416.191 165.365C412.619 132.633 385.873 107.142 353.331 107.142H336.339C368.878 107.142 395.626 132.633 399.199 165.365C399.487 167.78 399.584 170.292 399.584 172.898V213.357H244.898V283.652H396.302C393.212 287.997 388.288 290.797 382.783 290.797H399.777C405.377 290.797 410.303 287.997 413.294 283.652H416.579V273.32V220.598V172.898C416.579 170.292 416.482 167.78 416.191 165.365Z" fill="#63489A"/>
</g>
<g opacity="0.5">
<path d="M289.436 191.917C290.871 183.02 284.824 174.644 275.927 173.209C267.03 171.774 258.652 177.821 257.217 186.718C255.781 195.615 261.831 203.99 270.728 205.426C279.625 206.861 288.001 200.813 289.436 191.917Z" fill="#2E0086"/>
</g>
<path d="M273.381 195.592C276.848 195.592 279.656 192.785 279.656 189.317C279.656 185.849 276.848 183.039 273.381 183.039C269.913 183.039 267.103 185.849 267.103 189.317C267.103 192.785 269.913 195.592 273.381 195.592Z" fill="#DFAF51"/>
<path d="M128.16 377.699C115.318 377.699 104.117 371.036 98.1297 359.932C92.1426 348.827 92.9152 336.083 100.157 325.654L119.082 289.637L239.202 290.312L206.178 337.337C188.604 362.635 159.347 377.699 128.16 377.699Z" fill="#40217D"/>
<mask id="mask1_1081_105968" style="mask-type:alpha" maskUnits="userSpaceOnUse" x="19" y="108" width="228" height="249">
<path d="M44.6377 120.691L167.733 108.905C167.733 108.905 144.489 118.072 129.756 132.149C132.376 137.06 134.667 138.369 134.667 138.369C134.667 138.369 153.983 111.524 186.393 114.143C211.947 116.207 235.828 140.989 239.429 153.429C243.03 165.869 239.429 282.089 239.429 282.089L246.304 356.077L64.9352 355.095L19.1021 269.649L23.0306 200.244L33.5068 148.846L44.6377 120.691Z" fill="#FF0000"/>
</mask>
<g mask="url(#mask1_1081_105968)">
<path d="M216.408 181.689L228.864 235.956C229.252 237.501 229.252 239.043 228.864 240.492V240.589C228.767 240.782 228.767 240.974 228.67 241.264C228.573 241.746 228.382 242.231 228.188 242.616C228.091 242.81 227.995 243.1 227.898 243.294C227.801 243.488 227.706 243.679 227.513 243.873C227.416 244.067 227.222 244.258 227.125 244.452C227.028 244.646 226.934 244.74 226.74 244.934C226.161 245.609 225.485 246.288 224.713 246.867C224.519 247.06 224.231 247.252 223.94 247.348C223.65 247.542 223.359 247.637 222.974 247.83C222.78 247.927 222.492 248.024 222.298 248.121C222.104 248.218 222.01 248.218 221.816 248.315C221.526 248.412 221.334 248.506 221.044 248.506L98.1242 276.896C92.4278 278.248 86.8257 274.675 85.4743 268.979L73.0181 214.713C72.9212 214.519 72.9238 214.231 72.9238 214.037C72.8269 213.555 72.8269 212.974 72.8269 212.492C72.8269 212.395 72.8269 212.298 72.8269 212.298C72.8269 211.622 72.9212 210.946 73.0181 210.368C73.115 210.174 73.115 209.886 73.2119 209.692C73.3088 209.498 73.3088 209.207 73.4057 209.014C73.5995 208.532 73.7907 208.147 73.9845 207.759C74.2752 207.083 74.7571 206.408 75.239 205.829C76.6874 204.09 78.6176 202.835 81.0324 202.256L203.952 173.966C206.173 173.484 208.491 173.675 210.421 174.544C212.063 175.22 213.514 176.378 214.671 177.826C215.059 178.308 215.345 178.889 215.635 179.468C215.635 179.565 215.732 179.662 215.732 179.662C216.023 180.144 216.117 180.628 216.311 181.11C216.311 181.304 216.311 181.495 216.408 181.689Z" fill="#A8A8A8"/>
<path d="M215.829 180.148L158.763 234.22L157.893 234.993L152.488 240.111L147.561 238.565L146.982 238.372L74.7571 215.583L73.115 215.101L73.0181 214.813C72.9212 214.62 72.9238 214.329 72.9238 214.135C72.8269 213.653 72.8269 213.072 72.8269 212.59C72.8269 212.493 72.8269 212.399 72.8269 212.399C72.8269 211.723 72.9212 211.045 73.0181 210.466C73.115 210.272 73.115 209.984 73.2119 209.79C73.3088 209.596 73.3088 209.308 73.4057 209.114C73.5995 208.632 73.7907 208.247 73.9845 207.86C74.2752 207.184 74.7571 206.508 75.239 205.93C76.3024 205.157 77.5569 204.578 79.0052 204.287L203.276 175.609C206.848 174.739 210.518 175.9 212.932 178.217C213.32 178.699 213.608 179.278 213.899 179.857C214.093 180.245 215.345 178.987 215.538 179.278C215.538 179.375 215.829 179.954 215.829 180.148Z" fill="#8B8B8B"/>
<path d="M215.636 179.572L214.382 180.826L158.476 233.838L157.606 234.611L153.937 238.086L147.95 236.25L147.756 236.153L74.1792 212.98L73.8885 212.883L73.1185 212.595C73.0216 212.595 72.9247 212.498 72.8278 212.498H72.7309C72.249 212.207 71.9583 211.629 72.0552 211.05V210.953C72.0552 210.759 72.1521 210.471 72.1521 210.277C72.1521 210.18 72.1521 210.18 72.1521 210.083C72.249 209.89 72.249 209.601 72.3459 209.408C72.4428 209.117 72.5371 208.926 72.5371 208.732C72.634 208.441 72.7309 208.25 72.8278 208.056C72.9247 207.862 73.0216 207.671 73.1185 207.574C73.3123 207.284 73.4066 206.996 73.6004 206.705C73.7942 206.511 73.8885 206.223 74.0823 206.029C74.2761 205.835 74.373 205.644 74.5669 205.45C74.7607 205.256 74.9518 205.063 75.1457 204.869C75.3395 204.675 75.5307 204.484 75.7245 204.29C75.8214 204.193 76.0126 204.096 76.1095 203.999C76.2064 203.902 76.3033 203.808 76.4971 203.711C76.6909 203.614 76.7852 203.517 76.979 203.421C76.979 203.421 76.979 203.423 77.0759 203.326C77.2697 203.229 77.364 203.132 77.5578 203.036C77.7516 202.939 77.9454 202.842 78.0423 202.745C78.1392 202.648 78.3304 202.651 78.4273 202.554C78.718 202.457 78.9092 202.36 79.1999 202.263C79.4906 202.166 79.7787 202.069 80.0695 202.069L204.34 173.391C204.534 173.294 204.822 173.296 205.016 173.296C205.113 173.296 205.304 173.296 205.401 173.199C205.692 173.103 205.98 173.103 206.271 173.103C206.561 173.103 206.752 173.103 207.043 173.103C207.719 173.103 208.395 173.199 209.07 173.296C209.458 173.393 209.843 173.488 210.134 173.584C210.809 173.778 211.582 174.163 212.161 174.551C212.451 174.745 212.836 174.936 213.127 175.227C214.479 176.29 215.636 179.572 215.636 179.572Z" fill="#CECECE"/>
<path d="M159.346 237.694C160.118 241.073 157.992 244.454 154.613 245.227C151.235 245.999 147.854 243.873 147.081 240.494C146.308 237.116 148.435 233.737 151.814 232.964C155.192 232.192 158.573 234.316 159.346 237.694Z" fill="#A7A7A7"/>
<g opacity="0.5">
<path d="M159.73 237.023C160.502 240.402 158.376 243.783 154.997 244.556C151.618 245.328 148.24 243.204 147.467 239.826C146.695 236.447 148.819 233.066 152.197 232.293C155.576 231.618 158.957 233.742 159.73 237.023Z" fill="#2E0086"/>
</g>
</g>
<path d="M357.42 189.124H412.653L381.175 251.79L357.42 189.124Z" fill="#DB6158"/>
<path d="M271.097 189.701C271.097 187.383 272.933 185.547 275.25 185.547H408.887C411.205 185.547 413.038 187.383 413.038 189.701C413.038 192.019 411.205 193.852 408.887 193.852H275.154C272.933 193.755 271.097 191.922 271.097 189.701Z" fill="#6D573E"/>
<path d="M451.049 237.899C452.35 237.899 453.406 236.843 453.406 235.542C453.406 234.24 452.35 233.185 451.049 233.185C449.747 233.185 448.691 234.24 448.691 235.542C448.691 236.843 449.747 237.899 451.049 237.899Z" fill="white"/>
<path d="M431.407 155.142C432.13 155.142 432.716 154.556 432.716 153.833C432.716 153.11 432.13 152.523 431.407 152.523C430.684 152.523 430.097 153.11 430.097 153.833C430.097 154.556 430.684 155.142 431.407 155.142Z" fill="white"/>
<path d="M350.214 97.2582C351.515 97.2582 352.571 96.2027 352.571 94.9011C352.571 93.5994 351.515 92.5439 350.214 92.5439C348.912 92.5439 347.856 93.5994 347.856 94.9011C347.856 96.2027 348.912 97.2582 350.214 97.2582Z" fill="white"/>
<path d="M349.429 309.921C350.152 309.921 350.739 309.334 350.739 308.611C350.739 307.888 350.152 307.302 349.429 307.302C348.706 307.302 348.12 307.888 348.12 308.611C348.12 309.334 348.706 309.921 349.429 309.921Z" fill="white"/>
<path d="M73.383 277.184C74.1059 277.184 74.6925 276.598 74.6925 275.875C74.6925 275.152 74.1059 274.565 73.383 274.565C72.6601 274.565 72.0735 275.152 72.0735 275.875C72.0735 276.598 72.6601 277.184 73.383 277.184Z" fill="white"/>
<path d="M485.617 302.068C486.484 302.068 487.189 301.366 487.189 300.496C487.189 299.629 486.484 298.925 485.617 298.925C484.75 298.925 484.046 299.629 484.046 300.496C484.046 301.366 484.75 302.068 485.617 302.068Z" fill="white"/>
</g>
<defs>
<linearGradient id="paint0_linear_1081_105968" x1="52.1678" y1="568.455" x2="419.994" y2="568.455" gradientUnits="userSpaceOnUse">
<stop stop-color="#2E0086"/>
<stop offset="0.5" stop-color="#4D2797"/>
<stop offset="1" stop-color="#5429A6"/>
</linearGradient>
</defs>
</svg>
