<svg width="16" height="16" viewBox="0 0 16 16" fill="none" xmlns="http://www.w3.org/2000/svg">
<g id="Search" clip-path="url(#clip0_2563_10424)">
<path id="Icon" d="M13.803 14.8633C14.0959 15.1562 14.5708 15.1562 14.8637 14.8633C15.1566 14.5704 15.1566 14.0956 14.8637 13.8027L13.803 14.8633ZM12.6618 7.37222C12.6618 10.2934 10.2937 12.6614 7.37256 12.6614V14.1614C11.1221 14.1614 14.1618 11.1218 14.1618 7.37222H12.6618ZM7.37256 12.6614C4.45141 12.6614 2.08334 10.2934 2.08334 7.37222H0.583344C0.583344 11.1218 3.62298 14.1614 7.37256 14.1614V12.6614ZM2.08334 7.37222C2.08334 4.45107 4.45141 2.08301 7.37256 2.08301V0.583008C3.62298 0.583008 0.583344 3.62264 0.583344 7.37222H2.08334ZM7.37256 2.08301C10.2937 2.08301 12.6618 4.45107 12.6618 7.37222H14.1618C14.1618 3.62264 11.1221 0.583008 7.37256 0.583008V2.08301ZM11.156 12.2163L13.803 14.8633L14.8637 13.8027L12.2166 11.1556L11.156 12.2163Z" fill="#B0B0B0"/>
</g>
<defs>
<clipPath id="clip0_2563_10424">
<rect width="16" height="16" fill="white"/>
</clipPath>
</defs>
</svg>
