<svg width="24" height="25" viewBox="0 0 24 25" fill="none" xmlns="http://www.w3.org/2000/svg">
<g id="Group">
<path id="Vector" fill-rule="evenodd" clip-rule="evenodd" d="M17.9912 6.5096L5.39919 11.0626L9.59419 13.4906L13.2932 9.7906C13.4808 9.60309 13.7353 9.49781 14.0005 9.4979C14.2658 9.49799 14.5202 9.60346 14.7077 9.7911C14.8952 9.97874 15.0005 10.2332 15.0004 10.4985C15.0003 10.7637 14.8948 11.0181 14.7072 11.2056L11.0072 14.9056L13.4372 19.0996L17.9912 6.5096ZM18.3142 4.2656C19.5092 3.8326 20.6672 4.9906 20.2342 6.1856L14.9522 20.7906C14.5182 21.9886 12.8822 22.1346 12.2432 21.0316L9.02619 15.4736L3.46819 12.2566C2.36519 11.6176 2.51119 9.9816 3.70919 9.5476L18.3142 4.2656Z" fill="#2E0086"/>
</g>
</svg>
