<svg width="137" height="28" viewBox="0 0 137 28" fill="none" xmlns="http://www.w3.org/2000/svg">
<g id="unitedhealthcare-seeklogo 1" clip-path="url(#clip0_1127_5346)">
<g id="Group">
<path id="Vector" fill-rule="evenodd" clip-rule="evenodd" d="M18.3262 11.7046H22.781V12.302C21.5752 12.3751 21.4629 12.5973 21.4629 13.5607V21.5498C21.4629 23.2741 22.4467 24.1642 23.8196 24.1642C25.3989 24.1642 26.3631 23.1627 26.3631 21.5142V13.7463C26.3631 12.7823 26.0675 12.3751 24.9329 12.302V11.7046H28.4911V12.302C27.36 12.3751 27.062 12.7823 27.062 13.7463V21.1049C27.062 23.4023 26.0481 24.7585 23.4678 24.7585C20.8703 24.7585 19.6453 23.3475 19.6453 21.0289V13.5607C19.6453 12.5973 19.5349 12.3751 18.3262 12.302V11.7046ZM28.2219 24.4594V23.8633C29.1126 23.8245 29.4096 23.491 29.4096 22.933V17.1309C29.4096 16.3292 29.1873 16.1992 28.185 16.1596V15.5837L30.8935 15.4622V17.2596H30.9314C31.4317 16.22 32.1564 15.3647 33.4201 15.3647C34.9609 15.3647 35.6849 16.3689 35.6849 18.002V22.9363C35.6849 23.5648 35.9438 23.8245 36.8339 23.8633V24.4594H34.09V17.8543C34.09 16.6289 33.6253 16.22 32.9923 16.22C32.0093 16.22 31.0052 17.5187 31.0052 19.3372V22.9363C31.0052 23.491 31.3014 23.8245 32.1927 23.8633V24.4594H28.2219ZM40.033 12.7131C40.033 13.4172 39.6425 13.8996 39.0843 13.8996C38.5279 13.8996 38.1363 13.4172 38.1363 12.7131C38.1363 12.0062 38.5279 11.5254 39.0843 11.5254C39.6425 11.5254 40.033 12.0062 40.033 12.7131ZM37.2504 24.4594V23.8633C38.1405 23.8245 38.4356 23.491 38.4356 22.933V17.0287C38.4356 16.2301 38.2142 16.0995 37.2504 16.0624V15.4622L40.033 15.361V22.933C40.033 23.491 40.3311 23.8245 41.2205 23.8633V24.4594H37.2504ZM44.087 12.1668V15.5837H46.3218V16.282H44.087V22.8269C44.087 23.6468 44.3659 23.9807 44.8704 23.9807C45.4853 23.9807 45.9493 23.5889 45.9493 21.6182V21.0985H46.5475V21.9723C46.5475 23.8507 45.8589 24.68 44.4601 24.68C43.2326 24.68 42.4933 23.9067 42.4933 22.4172V16.282H41.3406V15.7302C42.6775 15.1748 43.3824 14.5424 43.4944 12.1668H44.087ZM54.1409 19.9619C54.1409 17.2946 52.8416 15.3647 50.785 15.3647C48.6885 15.3647 47.2046 17.2946 47.2046 20.0163C47.2046 22.3421 48.7266 24.68 51.0258 24.68C53.1017 24.68 54.013 23.0698 54.1807 21.4108L53.5852 21.2998C53.3986 22.5666 52.8241 23.9807 51.211 23.9807C49.9685 23.9807 49.0235 22.5666 49.0235 19.9619H54.1409ZM49.0235 19.2632C49.0235 16.8868 49.7271 15.9586 50.785 15.9586C51.768 15.9586 52.3233 16.8868 52.3233 19.2632H49.0235ZM59.1884 12.2826C60.1516 12.3201 60.3928 12.448 60.3928 13.247V16.5821L60.3555 16.5998C59.9849 15.8781 59.3561 15.361 58.4841 15.361C56.538 15.361 55.0716 17.3609 55.0716 20.0542C55.0716 22.9676 56.6115 24.68 58.279 24.68C59.4092 24.68 60.0224 24.0258 60.4284 23.1536H60.4678V24.4614L63.0644 24.3504V23.7619C62.3239 23.7763 61.989 23.4826 61.989 22.4768V11.5839L59.1884 11.7029V12.2826ZM56.8917 20.0719C56.8917 17.2126 57.5566 16.0624 58.5776 16.0624C59.7066 16.0624 60.3928 17.4367 60.3928 20.0719C60.3928 23.2655 59.4092 24.0806 58.4279 24.0806C57.5022 24.0806 56.8917 22.9299 56.8917 20.0719ZM63.526 24.4594V23.8633C64.6408 23.7881 64.8272 23.5648 64.8272 22.5975V13.5572C64.8272 12.5973 64.6408 12.3745 63.526 12.302V11.7046H68.0153V12.302C66.8675 12.3745 66.6448 12.5973 66.6448 13.5572V17.4013H70.6473V13.5572C70.6473 12.5973 70.422 12.3745 69.2746 12.302V11.7046H73.7616V12.302C72.6499 12.3745 72.4629 12.5973 72.4629 13.5572V22.5975C72.4629 23.5648 72.6499 23.7881 73.7616 23.8633V24.4594H69.2746V23.8633C70.422 23.7881 70.6473 23.5648 70.6473 22.5975V18.1012H66.6448V22.5975C66.6448 23.5648 66.8675 23.7881 68.0153 23.8633V24.4594H63.526ZM80.9742 19.9619C80.9742 17.2946 79.6761 15.3647 77.6179 15.3647C75.5218 15.3647 74.0364 17.2946 74.0364 20.0163C74.0364 22.3421 75.5576 24.68 77.8591 24.68C79.9339 24.68 80.8458 23.0698 81.0108 21.4108L80.417 21.2998C80.2312 22.5666 79.6563 23.9807 78.0438 23.9807C76.8011 23.9807 75.8556 22.5666 75.8556 19.9619H80.9742ZM75.8556 19.2632C75.8556 16.8868 76.5589 15.9586 77.6179 15.9586C78.601 15.9586 79.1566 16.8868 79.1566 19.2632H75.8556ZM88.2691 21.8967C88.2308 23.2332 88.0843 23.6412 87.7319 23.6412C87.4761 23.6412 87.3444 23.3994 87.3444 22.8638V17.7027C87.3444 16.3127 86.5454 15.3647 84.4695 15.3647C82.8558 15.3647 81.6671 16.3689 81.6671 17.6297C81.6671 18.3713 82.0387 18.7449 82.559 18.7449C83.0779 18.7449 83.4876 18.3346 83.4876 17.6676C83.4876 17.1282 83.3012 16.6826 82.7063 16.6289C83.0972 16.1629 83.634 15.9586 84.2837 15.9586C85.2665 15.9586 85.7501 16.4233 85.7501 17.4816V19.0033C84.1521 19.6004 81.2277 20.4734 81.2277 22.5878C81.2277 23.8149 82.0581 24.68 83.4822 24.68C84.781 24.68 85.3398 24.0709 85.7851 23.2373H85.8226C85.9337 24.2365 86.4344 24.68 87.3251 24.68C88.473 24.68 88.8652 23.8507 88.8652 21.9015L88.2691 21.8967ZM85.7501 20.7694C85.7501 22.8671 84.8945 23.9807 83.9478 23.9807C83.3737 23.9807 82.9283 23.4987 82.9283 22.5139C82.9283 20.9352 84.2631 20.2311 85.7501 19.7098V20.7694ZM88.6203 24.4594V23.8633C89.511 23.8245 89.8091 23.491 89.8091 22.9363V13.2839C89.8091 12.6519 89.4924 12.3201 88.5832 12.2826V11.6912L91.4025 11.5839V22.9363C91.4025 23.491 91.7004 23.8245 92.5911 23.8633V24.4594H88.6203ZM95.2777 12.1668V15.5837H97.5154V16.282H95.2777V22.8269C95.2777 23.6468 95.5585 23.9807 96.0599 23.9807C96.6778 23.9807 97.1421 23.5889 97.1421 21.6182V21.0985H97.7382V21.9723C97.7382 23.8507 97.0488 24.68 95.6506 24.68C94.4248 24.68 93.6834 23.9067 93.6834 22.4172V16.282H92.5332V15.7302C93.868 15.1748 94.5729 14.5424 94.6864 12.1668H95.2777ZM97.6715 24.4594V23.8633C98.5605 23.8245 98.861 23.491 98.861 22.9363V13.247C98.861 12.448 98.6363 12.3201 97.6336 12.2826V11.7029L100.454 11.5839V17.0367H100.492C100.863 16.22 101.57 15.3647 102.815 15.3647C104.244 15.3647 105.135 16.3689 105.135 18.002V22.9363C105.135 23.491 105.451 23.8245 106.285 23.8633V24.4594H103.539V17.9445C103.539 16.6488 103.074 16.22 102.405 16.22C101.477 16.22 100.454 17.4444 100.454 19.2257V22.9363C100.454 23.491 100.752 23.8245 101.644 23.8633V24.4594H97.6715ZM113.184 21.3813C113.016 23.1359 112.201 24.7053 110.155 24.7053C108.272 24.7053 106.531 23.0216 106.531 20.2754C106.531 17.9517 108.14 15.3394 110.383 15.3394C111.963 15.3394 112.959 16.3224 112.959 17.7673C112.959 18.6562 112.683 19.1384 112.017 19.1384C111.499 19.1384 111.148 18.6918 111.148 18.0261C111.148 17.2291 111.426 16.9129 111.905 16.9129C112.034 16.9129 112.109 16.9692 112.185 16.9877L112.22 16.9519C111.944 16.2643 111.352 15.9232 110.663 15.9232C109.278 15.9232 108.344 17.3224 108.344 19.9592C108.344 23.1005 109.315 23.9936 110.399 23.9936C111.905 23.9936 112.387 22.6135 112.59 21.302L113.184 21.3813ZM120.884 21.92C120.846 23.2711 120.702 23.6855 120.347 23.6855C120.091 23.6855 119.958 23.4408 119.958 22.8962V17.6876C119.958 16.2789 119.159 15.3394 117.062 15.3394C115.434 15.3394 114.251 16.336 114.251 17.6096C114.251 18.3616 114.621 18.7357 115.138 18.7357C115.658 18.7357 116.062 18.3233 116.062 17.6475C116.062 17.1028 115.879 16.6526 115.286 16.5969C115.675 16.13 116.215 15.9232 116.872 15.9232C117.868 15.9232 118.358 16.3899 118.358 17.4608V18.9977C116.75 19.5835 113.807 20.4662 113.807 22.5956C113.807 23.827 114.642 24.7053 116.077 24.7053C117.385 24.7053 117.947 24.0878 118.395 23.247H118.433C118.544 24.2567 119.046 24.7053 119.94 24.7053C121.085 24.7053 121.466 23.8672 121.466 21.9015L120.884 21.92ZM118.358 20.763C118.358 22.8735 117.499 23.9936 116.546 23.9936C115.965 23.9936 115.516 23.5116 115.516 22.5194C115.516 20.9304 116.861 20.2206 118.358 19.6968V20.763ZM121.698 24.4707V23.8894C122.479 23.8532 122.777 23.5164 122.777 22.954V17.8763C122.777 16.607 122.552 16.1959 121.622 16.1596V15.558L124.19 15.448V17.604H124.227C124.469 16.6328 125.13 15.3394 126.238 15.3394C126.925 15.3394 127.593 15.903 127.593 16.9519C127.593 17.756 127.205 18.1657 126.721 18.1657C126.313 18.1657 125.883 17.9054 125.883 17.0641C125.883 16.6151 126.144 16.1477 126.682 16.1477C126.591 15.9983 126.403 15.9232 126.201 15.9232C124.947 15.9405 124.376 18.6731 124.376 20.297V22.954C124.376 23.5147 124.671 23.8532 125.922 23.8894V24.4707H121.698ZM134.532 19.9881C134.532 17.2798 133.239 15.3394 131.173 15.3394C129.07 15.3394 127.593 17.2798 127.593 20.0437C127.593 22.3639 129.109 24.7053 131.416 24.7053C133.5 24.7053 134.402 23.0875 134.567 21.437L133.986 21.3214C133.8 22.5864 133.222 23.9936 131.603 23.9936C130.353 23.9936 129.404 22.5864 129.404 19.9881H134.532ZM129.404 19.2776C129.404 16.8653 130.111 15.9232 131.173 15.9232C132.16 15.9232 132.721 16.8653 132.721 19.2776H129.404ZM134.94 13.9119H135.273C135.447 13.9119 135.504 14.0407 135.504 14.1562C135.504 14.2965 135.431 14.4145 135.273 14.4145H134.94V13.9119ZM134.94 14.6205H135.199C135.273 14.6205 135.419 14.6294 135.439 14.8008C135.456 15.016 135.444 15.2236 135.504 15.3343H135.76C135.722 15.2327 135.699 14.9849 135.693 14.9147C135.686 14.5939 135.615 14.5307 135.415 14.5103V14.5031C135.62 14.4652 135.762 14.3204 135.762 14.1307C135.762 13.9338 135.623 13.7346 135.317 13.7346H134.68V15.3343H134.94V14.6205ZM135.202 13.1432C134.433 13.1432 133.809 13.7599 133.809 14.526C133.809 14.7091 133.844 14.8905 133.914 15.0599C133.984 15.2292 134.086 15.383 134.216 15.5126C134.345 15.6421 134.499 15.7448 134.668 15.8147C134.838 15.8846 135.019 15.9203 135.202 15.9199C135.964 15.9199 136.585 15.3027 136.585 14.526C136.585 14.3444 136.549 14.1645 136.48 13.9967C136.41 13.829 136.309 13.6765 136.18 13.5481C136.052 13.4197 135.899 13.3179 135.731 13.2484C135.564 13.1789 135.384 13.1432 135.202 13.1432ZM135.202 13.3504C135.357 13.35 135.511 13.3803 135.654 13.4395C135.797 13.4987 135.927 13.5856 136.037 13.6953C136.146 13.8051 136.233 13.9353 136.292 14.0787C136.351 14.2221 136.381 14.3757 136.38 14.5307C136.38 15.1886 135.859 15.7133 135.202 15.7133C135.046 15.714 134.892 15.6839 134.748 15.6248C134.604 15.5657 134.473 15.4786 134.363 15.3687C134.253 15.2588 134.166 15.1282 134.106 14.9844C134.047 14.8405 134.016 14.6864 134.016 14.5307C134.016 13.8781 134.546 13.3504 135.202 13.3504Z" fill="#1F3570"/>
<path id="Vector_2" fill-rule="evenodd" clip-rule="evenodd" d="M4.31978 26.7604C3.77475 26.6333 3.2672 26.1653 3.0711 25.6355C2.49414 25.5405 2.00349 25.0602 1.79297 24.4261C1.79894 24.4261 1.80265 24.4261 1.80862 24.4278L3.80256 24.6531C4.58221 24.3625 5.69988 23.4671 6.31783 21.2544C6.75473 19.6885 6.81755 17.3277 6.81755 14.633V4.17825L5.57608 3.90244L7.93337 2.63913V15.6755C7.93337 18.006 7.84212 20.0687 7.35208 21.7259C7.04929 22.9243 5.77589 25.37 3.56959 25.6633L5.12663 25.8491C6.54112 25.5003 7.70164 24.2181 8.34555 22.5659C9.0805 20.6436 9.20121 18.0752 9.20121 15.045V2.92216L7.93337 2.63913L10.329 1.35667V15.5809C10.329 19.1465 9.95182 21.6221 9.17278 23.3649C8.63145 24.5413 7.12756 26.7869 4.82959 26.8075L6.61219 27.0211C7.98404 26.7845 9.42573 25.6392 10.2839 23.8652C11.2017 21.9708 11.623 19.1608 11.623 15.045V1.64402L10.329 1.35667L12.7617 0.0517578V15.156C12.7617 20.8142 11.8998 25.0056 9.18679 26.887C8.32495 27.4644 7.41965 27.9472 6.31186 27.9009C5.49699 27.8659 4.74988 27.4893 4.31978 26.7604Z" fill="#7E868A"/>
<path id="Vector_3" fill-rule="evenodd" clip-rule="evenodd" d="M2.16881 24.4554H2.16284H2.19662C2.20754 24.4554 2.21475 24.4554 2.2267 24.4527C2.23823 24.4527 2.24853 24.4527 2.26006 24.4523C2.27139 24.4523 2.28169 24.4523 2.29261 24.4498C2.30394 24.4498 2.31486 24.449 2.32577 24.449C2.33957 24.4459 2.35049 24.4459 2.36429 24.4451C2.37397 24.4443 2.38613 24.4418 2.39457 24.4402C2.41085 24.4377 2.42465 24.4371 2.43989 24.4338C2.45019 24.4334 2.45925 24.4313 2.46996 24.4305C2.48809 24.4288 2.50313 24.4241 2.51878 24.4216C2.52784 24.4208 2.53691 24.4185 2.54659 24.4169C2.56595 24.4119 2.58222 24.4097 2.60035 24.4064C2.61189 24.4039 2.62033 24.4 2.63228 24.3975C2.64917 24.3936 2.66853 24.3899 2.68789 24.3847C2.69743 24.3809 2.70729 24.378 2.71735 24.3759C2.73857 24.3701 2.75669 24.3654 2.7777 24.3582C2.78553 24.3541 2.79645 24.351 2.8086 24.3468C2.82776 24.3413 2.84959 24.3341 2.86896 24.3267C2.87864 24.3227 2.88811 24.3174 2.89903 24.3139C2.91839 24.3083 2.94126 24.2986 2.96185 24.289C2.97341 24.2858 2.98439 24.2809 2.9944 24.2743C3.015 24.2663 3.03786 24.2552 3.06073 24.2455C3.06917 24.2414 3.08071 24.235 3.09162 24.2307C3.11264 24.2189 3.13509 24.2068 3.15857 24.1948C3.16976 24.1908 3.18 24.1845 3.18864 24.1763C3.21171 24.1666 3.23643 24.1514 3.25806 24.1392C3.26836 24.132 3.27804 24.1264 3.28896 24.1199C3.31182 24.1046 3.33778 24.091 3.36064 24.0758C3.3697 24.0684 3.38062 24.0597 3.39154 24.0523C3.41603 24.0364 3.43961 24.0193 3.46219 24.0008C3.47409 23.9937 3.48538 23.9856 3.49597 23.9767C3.51822 23.9582 3.54232 23.9413 3.56704 23.9217C3.57795 23.9124 3.58887 23.9027 3.59794 23.8931C3.62327 23.8737 3.64737 23.8543 3.66921 23.8335C3.68115 23.8222 3.69207 23.8109 3.70237 23.8006C3.72832 23.7792 3.75057 23.7579 3.77405 23.7353C3.78704 23.7233 3.79916 23.7105 3.81031 23.6968C3.83441 23.6731 3.855 23.6512 3.87787 23.6267C3.89291 23.6123 3.90691 23.5958 3.91886 23.5808C3.94069 23.5575 3.96232 23.5334 3.9823 23.5068C3.9961 23.4932 4.00826 23.477 4.02268 23.4586C4.04451 23.4321 4.06614 23.4078 4.08736 23.3785C4.09992 23.3616 4.11331 23.3443 4.12526 23.3274C4.14833 23.2963 4.16872 23.2687 4.19055 23.2405C4.20374 23.2216 4.21816 23.2003 4.23031 23.181C4.25091 23.1497 4.26903 23.1206 4.29066 23.0893C4.30508 23.0683 4.31971 23.0434 4.33413 23.0215C4.35349 22.9894 4.37264 22.9606 4.39201 22.9268C4.40663 22.9025 4.41981 22.8792 4.43197 22.8551C4.45174 22.8205 4.47172 22.7859 4.49232 22.7529C4.50612 22.7247 4.51766 22.6981 4.53084 22.674C4.5502 22.6378 4.56998 22.6024 4.58749 22.5638C4.60335 22.5348 4.61653 22.5027 4.63157 22.4728C4.64784 22.4372 4.66658 22.4013 4.68286 22.3642C4.6981 22.3296 4.71314 22.2946 4.72817 22.2584C4.74321 22.2227 4.75948 22.1873 4.77576 22.1494C4.78976 22.114 4.80233 22.0798 4.81819 22.0413C4.83261 22.0005 4.8495 21.9628 4.86515 21.921C4.87731 21.8864 4.89173 21.8476 4.90388 21.8099C4.91953 21.7661 4.93828 21.7238 4.95208 21.6791C4.96959 21.6281 4.98524 21.5733 5.00275 21.5209C5.01243 21.488 5.02459 21.4567 5.0353 21.4229C5.06187 21.3343 5.08844 21.2435 5.11501 21.1508C5.48373 19.8216 5.57662 17.1302 5.57662 15.3402V3.90039L0 6.88758V18.6763C0 23.1734 0.808078 24.2494 1.80916 24.4257C1.80319 24.4241 1.79948 24.4241 1.79351 24.4241L2.16881 24.4554Z" fill="#1F3570"/>
</g>
</g>
<defs>
<clipPath id="clip0_1127_5346">
<rect width="136.719" height="28" fill="white"/>
</clipPath>
</defs>
</svg>
